<?xml version="1.0" standalone="no"?>
<!DOCTYPE svg PUBLIC "-//W3C//DTD SVG 20010904//EN"
 "http://www.w3.org/TR/2001/REC-SVG-20010904/DTD/svg10.dtd">
<svg version="1.0" xmlns="http://www.w3.org/2000/svg"
 width="460.000000pt" height="460.000000pt" viewBox="0 0 460.000000 460.000000"
 preserveAspectRatio="xMidYMid meet">

<g transform="translate(0.000000,460.000000) scale(0.100000,-0.100000)"
fill="#000000" stroke="none">
<path d="M938 3841 l-33 -29 -3 -1504 c-2 -1488 -2 -1503 18 -1536 11 -18 32
-37 46 -42 15 -6 197 -10 446 -10 369 0 423 2 447 16 58 34 56 16 57 563 l0
504 30 23 29 24 327 0 327 0 28 -24 28 -24 5 -511 5 -511 28 -27 27 -28 446 0
446 0 29 33 29 32 0 1505 0 1504 -31 36 -31 35 -442 0 c-476 0 -468 1 -498
-53 -10 -16 -14 -141 -18 -497 l-5 -474 -34 -23 c-34 -23 -38 -23 -343 -23
-336 0 -358 3 -378 56 -6 15 -10 216 -10 484 l0 459 -31 36 -31 35 -439 0
-439 0 -32 -29z"/>
</g>
</svg>
