<?xml version="1.0" standalone="no"?>
<!DOCTYPE svg PUBLIC "-//W3C//DTD SVG 20010904//EN"
 "http://www.w3.org/TR/2001/REC-SVG-20010904/DTD/svg10.dtd">
<svg version="1.0" xmlns="http://www.w3.org/2000/svg"
 width="468.000000pt" height="533.000000pt" viewBox="0 0 468.000000 533.000000"
 preserveAspectRatio="xMidYMid meet">

<g transform="translate(0.000000,533.000000) scale(0.100000,-0.100000)"
fill="#000000" stroke="none">
<path d="M1680 5186 c-52 -52 -167 -169 -255 -261 -88 -92 -191 -197 -230
-234 -112 -107 -431 -417 -546 -531 -89 -89 -110 -116 -128 -165 -50 -133 -52
-279 -8 -413 29 -86 50 -112 90 -112 16 0 68 -7 116 -14 47 -8 121 -19 164
-24 90 -12 107 -22 107 -66 0 -18 5 -59 11 -91 8 -44 8 -60 -2 -65 -12 -8 -45
-12 -272 -31 -161 -14 -155 -10 -187 -133 -26 -102 -28 -239 -5 -331 10 -38
22 -73 27 -76 10 -7 -168 -19 -273 -19 l-69 0 -19 -37 c-57 -113 -74 -365 -32
-475 20 -53 30 -63 54 -59 5 1 34 -3 65 -9 31 -5 100 -17 152 -26 83 -14 170
-44 170 -60 0 -2 -10 -24 -21 -47 -71 -137 -88 -281 -49 -398 23 -66 73 -160
95 -179 8 -7 15 -19 15 -26 0 -11 -40 -13 -221 -11 l-222 3 -29 -30 c-97 -102
-159 -362 -129 -542 20 -116 64 -238 98 -265 7 -6 13 -19 13 -29 0 -29 22 -38
105 -45 44 -3 114 -10 155 -15 41 -6 246 -28 455 -51 209 -22 488 -56 620 -75
132 -19 305 -41 385 -49 279 -28 847 -89 1025 -111 72 -8 139 -19 151 -24 13
-5 35 -2 65 11 44 18 205 76 414 149 61 21 146 48 190 60 44 13 114 33 155 46
41 13 112 33 157 45 93 24 119 39 110 63 -4 11 -18 16 -45 16 -36 0 -40 3 -46
31 -10 53 -7 190 8 284 8 50 17 117 21 150 9 83 23 123 46 130 10 4 21 18 25
33 11 53 17 57 93 60 68 3 71 4 71 27 0 14 -8 29 -20 35 -11 6 -33 37 -49 68
-49 97 -65 166 -65 282 -1 94 2 111 26 160 35 71 47 85 81 94 22 5 28 12 25
28 -3 22 -23 31 -90 43 -31 5 -42 14 -65 52 -23 39 -27 61 -33 152 -3 58 -4
114 -2 123 5 20 39 31 167 54 50 9 100 20 113 25 31 12 28 38 -7 50 -36 13
-41 30 -41 146 0 188 23 223 144 223 58 0 66 2 66 19 0 11 3 26 6 35 4 11 -9
23 -50 43 -65 31 -88 70 -113 187 -17 79 -13 291 5 337 6 16 33 39 66 58 44
24 56 37 56 55 0 13 -7 27 -16 30 -10 4 -69 37 -133 75 -64 38 -181 105 -261
149 -171 94 -252 147 -262 172 -4 10 -25 26 -47 36 -29 13 -44 26 -51 48 -28
90 -28 311 1 372 8 16 24 33 37 39 12 5 22 17 22 26 0 17 -24 28 -265 131
-196 83 -281 121 -430 194 -71 34 -182 83 -245 107 -63 25 -216 89 -340 142
-124 53 -299 128 -390 167 -91 38 -205 87 -255 108 -49 21 -99 40 -110 44 -15
4 -42 -16 -115 -88z m10 -96 c-22 -52 -40 -105 -40 -117 0 -16 -6 -23 -19 -23
-51 0 -31 -282 28 -398 l20 -40 -39 -36 c-22 -20 -44 -36 -48 -36 -17 0 -52
79 -67 149 -18 86 -19 260 -2 349 12 61 15 66 106 158 52 51 96 92 97 91 2 -2
-14 -46 -36 -97z m229 34 c75 -37 163 -77 196 -89 33 -13 107 -44 165 -70 58
-26 143 -62 190 -80 47 -18 148 -62 225 -98 337 -157 460 -213 620 -284 94
-41 208 -92 255 -113 47 -21 103 -45 125 -53 l40 -15 -5 -63 c-8 -102 -4 -261
8 -301 6 -21 7 -38 2 -38 -8 0 -28 11 -192 106 -39 23 -68 46 -68 55 0 11 -27
27 -82 49 -46 17 -88 36 -94 41 -6 5 -53 31 -105 59 -100 53 -107 59 -38 35
39 -14 45 -14 55 0 9 12 17 13 38 5 14 -5 26 -15 26 -23 0 -7 39 -29 88 -49
71 -30 89 -34 98 -23 8 11 20 9 67 -12 41 -19 61 -23 69 -15 13 13 2 32 -18
32 -8 0 -46 16 -83 35 -37 20 -137 62 -222 94 -215 83 -343 133 -419 166 -36
15 -94 38 -130 51 -112 39 -243 91 -300 118 -62 29 -80 32 -80 13 0 -11 78
-48 255 -120 109 -45 228 -96 233 -102 11 -11 -20 -4 -70 16 -29 11 -109 40
-178 64 -69 24 -180 67 -248 94 -122 51 -152 59 -152 42 0 -9 87 -50 157 -75
22 -8 58 -23 80 -34 22 -11 91 -39 154 -61 210 -73 269 -96 269 -102 0 -16
-34 -17 -68 -3 -65 28 -244 95 -332 123 -47 15 -99 35 -116 44 -39 20 -285
110 -363 133 -100 28 -209 74 -208 87 1 7 -2 39 -6 72 -5 38 -4 77 3 105 16
65 16 72 2 77 -6 3 -16 -6 -21 -19 -9 -21 -10 -21 -12 -3 -3 25 0 56 6 72 4
13 54 -2 150 -47 201 -92 479 -207 820 -340 110 -43 250 -99 310 -125 129 -55
160 -64 153 -44 -5 15 -190 97 -453 201 -99 38 -196 78 -215 88 -19 10 -69 31
-110 48 -119 49 -375 155 -494 206 -59 25 -113 46 -120 46 -31 1 -37 16 -21
53 8 20 18 37 22 37 3 0 67 -30 142 -66z m156 5 c22 -10 29 -16 15 -13 -28 7
-80 33 -65 33 6 0 28 -9 50 -20z m-614 -256 c-34 -121 11 -401 72 -452 22 -18
22 -31 -1 -31 -19 0 -32 18 -72 100 -43 86 -53 149 -48 277 5 102 8 117 29
139 28 30 34 19 20 -33z m-96 -175 c0 -144 19 -205 90 -292 l43 -53 -137 -126
c-75 -69 -181 -162 -236 -207 -55 -45 -152 -131 -216 -191 l-117 -108 -20 50
c-37 88 -46 158 -33 262 16 127 34 217 43 217 4 0 7 -37 7 -83 0 -89 2 -106
32 -205 25 -83 36 -102 60 -102 35 0 549 481 549 514 0 5 -18 41 -39 80 -68
123 -93 287 -53 341 9 14 19 25 22 25 3 0 5 -55 5 -122z m367 97 c3 -14 1 -25
-3 -25 -5 0 -9 11 -9 25 0 14 2 25 4 25 2 0 6 -11 8 -25z m39 -90 c19 -8 27
-14 19 -14 -26 -1 -60 11 -60 20 0 12 2 12 41 -6z m-467 -183 c9 -27 30 -70
47 -96 16 -26 26 -53 22 -59 -33 -56 -460 -462 -485 -462 -17 0 -48 96 -59
185 -20 147 -25 137 226 396 l220 227 6 -71 c4 -38 14 -92 23 -120z m441 124
c13 3 48 -5 81 -19 32 -14 115 -43 184 -66 69 -22 157 -51 195 -65 39 -14 138
-45 220 -71 83 -25 174 -54 203 -64 45 -16 53 -17 60 -4 8 13 14 12 48 -2 l39
-17 -61 -30 -61 -31 -84 35 c-77 33 -184 69 -552 187 -130 42 -307 108 -318
120 -4 3 -10 26 -13 51 l-7 45 22 -37 c18 -30 27 -36 44 -32z m-3 -82 c16 -8
49 -22 72 -29 22 -7 93 -32 156 -55 63 -23 194 -68 290 -100 225 -75 311 -107
324 -120 19 -19 -9 -11 -211 59 -109 38 -236 81 -283 96 -47 15 -125 42 -175
60 -49 18 -115 38 -145 45 -50 11 -80 31 -80 52 0 12 18 10 52 -8z m191 -148
c1 -5 -6 -14 -16 -20 -14 -9 -20 -7 -28 7 -6 9 -15 17 -21 17 -6 0 -19 7 -29
16 -17 15 -21 14 -59 -16 -23 -18 -46 -44 -51 -57 -5 -13 -17 -27 -26 -30 -10
-4 -85 -74 -166 -155 -82 -81 -155 -148 -162 -148 -7 0 -28 -12 -45 -26 -17
-15 -34 -24 -37 -20 -4 3 -4 7 -2 9 2 2 17 13 32 24 35 27 79 91 72 104 -10
16 -24 10 -65 -27 -22 -20 -43 -34 -46 -32 -3 3 93 102 212 220 l217 214 109
-35 c60 -20 110 -40 111 -45z m1127 -73 l25 -14 -25 7 c-14 4 -36 13 -50 21
l-25 14 25 -7 c14 -4 36 -13 50 -21z m-247 -83 c-50 -124 -65 -235 -60 -425 3
-93 8 -182 12 -196 6 -24 3 -26 -62 -47 -138 -44 -275 -83 -279 -79 -7 7 -7
473 0 525 7 44 5 52 -8 52 -16 0 -17 -5 -37 -150 -10 -76 -9 -380 2 -420 2 -8
0 -17 -6 -20 -13 -7 -18 200 -10 408 l7 164 59 46 c50 39 397 218 406 209 1
-2 -9 -32 -24 -67z m147 5 c0 -3 -18 4 -40 15 -22 11 -40 23 -40 25 0 3 18 -4
40 -15 22 -11 40 -23 40 -25z m75 10 c22 -13 36 -25 32 -25 -11 0 -87 39 -87
45 0 10 16 4 55 -20z m21 -116 c23 -9 95 -49 159 -89 65 -39 155 -90 199 -112
45 -22 170 -92 278 -154 109 -62 231 -130 273 -149 42 -20 113 -59 158 -86 80
-49 239 -129 285 -143 13 -4 22 -11 20 -14 -2 -4 -12 -25 -23 -47 -11 -22 -20
-41 -21 -43 -3 -5 -258 124 -310 158 -49 31 -74 38 -74 20 0 -24 327 -210 369
-210 8 0 10 -16 5 -52 -4 -29 -8 -54 -9 -56 -3 -3 -193 94 -315 161 -165 90
-227 114 -218 85 3 -7 27 -25 54 -39 27 -14 114 -61 194 -104 230 -124 252
-135 271 -135 12 0 19 -7 19 -20 0 -11 -5 -20 -11 -20 -13 0 -257 126 -529
273 -102 55 -198 107 -215 115 -97 49 -214 126 -219 144 -12 49 -11 49 363
-134 124 -60 231 -106 239 -103 8 3 12 8 8 12 -14 15 -195 116 -261 146 -38
18 -117 55 -175 83 l-105 52 55 16 c76 22 88 31 74 53 -15 24 -283 173 -313
173 -4 0 -52 -18 -106 -40 l-99 -39 -50 26 c-148 77 -146 77 -159 63 -7 -8 -8
-14 -2 -16 6 -3 35 -18 65 -35 30 -16 76 -39 102 -51 46 -21 47 -22 53 -77 4
-31 8 -62 10 -68 7 -23 25 -14 25 12 0 21 5 25 30 25 17 0 30 -4 30 -10 0 -5
7 -10 15 -10 8 0 15 -4 15 -10 0 -5 11 -10 25 -10 14 0 25 -5 25 -11 0 -7 10
-9 25 -5 18 5 25 2 25 -8 0 -8 -6 -16 -12 -19 -18 -6 5 -32 42 -47 23 -10 30
-19 32 -48 4 -45 28 -56 28 -13 0 17 2 31 4 31 2 0 35 -19 72 -42 38 -23 92
-54 119 -68 93 -50 180 -101 205 -121 20 -16 15 -15 -30 6 -30 14 -61 25 -68
25 -26 0 -5 -25 39 -49 24 -13 91 -52 149 -86 252 -148 427 -245 449 -247 50
-6 28 21 -61 74 -51 31 -121 70 -155 87 -35 17 -63 33 -63 35 0 5 140 -54 222
-92 36 -18 73 -32 80 -32 10 0 18 -21 25 -67 6 -38 9 -69 8 -71 -5 -5 -65 27
-135 73 -36 23 -105 64 -155 90 -49 26 -148 82 -220 123 -184 106 -335 183
-346 176 -20 -12 -5 -26 69 -62 81 -41 297 -165 366 -211 23 -15 88 -55 146
-89 195 -117 175 -115 -80 5 -47 22 -96 44 -110 48 -14 4 -56 29 -95 55 -38
26 -110 70 -160 99 -49 29 -121 75 -159 103 l-70 51 -73 -7 -73 -6 -68 43
c-37 24 -141 80 -232 125 -91 44 -173 87 -182 94 -11 8 -19 33 -23 68 l-6 55
18 -44 c17 -41 46 -72 57 -60 3 2 1 34 -5 69 -5 36 -12 130 -15 210 -6 138 -5
149 18 217 14 40 23 74 20 78 -11 11 -22 4 -36 -22 -19 -36 -20 -22 -2 22 l15
35 78 -47 c43 -25 97 -54 119 -64z m-6 55 c0 -2 -9 0 -20 6 -11 6 -20 13 -20
16 0 2 9 0 20 -6 11 -6 20 -13 20 -16z m-753 -140 c-35 -23 -89 -48 -242 -111
-33 -13 -100 -43 -150 -65 -103 -47 -205 -88 -205 -83 0 6 142 72 369 172 107
48 206 92 220 100 43 22 48 15 8 -13z m-1687 -51 c-16 -95 20 -283 68 -366 16
-27 16 -27 -43 -87 -41 -42 -61 -56 -67 -47 -5 6 -20 49 -34 95 -24 74 -26 94
-21 185 6 117 35 217 75 259 14 15 27 26 29 25 1 -2 -2 -31 -7 -64z m1715
-253 l0 -260 -100 -31 c-55 -16 -125 -39 -155 -51 -30 -11 -98 -33 -150 -49
-52 -15 -138 -42 -190 -58 -52 -17 -95 -29 -96 -28 -1 1 14 28 34 59 22 34 44
58 55 58 11 0 17 8 17 23 1 20 31 67 43 67 3 0 7 -12 9 -27 2 -21 9 -29 27
-31 31 -5 38 8 46 92 4 39 9 74 12 78 2 4 15 0 29 -9 20 -13 24 -23 22 -52 -2
-24 -8 -36 -18 -36 -21 0 -19 -39 2 -43 9 -2 27 7 39 19 18 18 21 30 17 70 -3
27 -12 57 -22 67 -9 10 -16 25 -16 34 0 14 118 133 125 126 2 -2 -3 -30 -11
-63 -18 -78 -18 -166 0 -190 14 -19 15 -19 51 -2 39 19 42 44 5 39 -23 -2 -23
-1 -16 80 12 151 32 243 26 126 -5 -117 57 -235 98 -185 13 15 -4 262 -20 295
-12 24 -3 35 102 114 19 15 35 27 35 27 0 1 0 -116 0 -259z m-285 90 c-8 -5
-19 -10 -25 -10 -5 0 -3 5 5 10 8 5 20 10 25 10 6 0 3 -5 -5 -10z m-50 -70
c-20 -13 -33 -13 -25 0 3 6 14 10 23 10 15 0 15 -2 2 -10z m1422 -8 c11 -11 3
-12 -39 -6 -36 4 -53 3 -53 -4 0 -6 -7 -9 -15 -6 -8 4 -15 12 -15 19 0 17 105
14 122 -3z m52 9 c3 -5 -3 -11 -13 -14 -14 -3 -18 -1 -14 9 6 16 19 18 27 5z
m-2714 -116 c0 -3 -5 -5 -11 -5 -5 0 -17 16 -25 35 -20 50 -17 53 11 11 14
-20 25 -39 25 -41z m1420 33 c0 -18 3 -44 5 -58 5 -21 4 -22 -3 -5 -16 36 -24
95 -12 95 5 0 10 -15 10 -32z m-439 -131 c-8 -8 -11 4 -11 40 0 77 14 100 18
29 2 -32 -2 -64 -7 -69z m-100 70 c-8 -8 -11 -5 -11 9 0 27 14 41 18 19 2 -9
-1 -22 -7 -28z m196 -9 c-2 -13 -4 -5 -4 17 -1 22 1 32 4 23 2 -10 2 -28 0
-40z m-142 -15 c-4 -32 -2 -85 3 -118 10 -63 9 -76 -9 -58 -24 24 -36 84 -27
135 19 103 43 133 33 41z m-89 -30 c4 -38 8 -104 8 -148 1 -63 4 -80 16 -80 8
0 17 11 20 25 4 16 9 20 13 13 7 -12 -63 -122 -87 -135 -7 -4 -53 -10 -103
-14 l-91 -7 -8 59 c-17 122 -5 338 16 303 7 -11 17 -10 55 9 25 12 47 22 48
22 1 0 3 -51 4 -112 1 -154 17 -189 78 -174 17 4 25 13 25 27 0 19 -4 21 -30
16 -32 -7 -31 -8 -34 60 -1 10 9 19 24 23 14 3 26 14 28 23 3 13 -4 17 -27 17
-29 0 -31 2 -31 38 0 55 9 78 33 90 34 17 35 16 43 -55z m-260 25 c-23 -113
-26 -176 -12 -268 8 -52 12 -98 8 -102 -9 -9 -169 -28 -234 -28 -43 0 -47 2
-57 33 -7 17 -16 79 -22 136 -8 87 -7 107 4 119 11 10 289 135 316 141 2 1 1
-14 -3 -31z m422 -88 c-12 -17 -24 -26 -26 -20 -2 6 5 22 17 34 12 12 22 37
23 57 l1 34 4 -37 c3 -27 -2 -45 -19 -68z m1057 70 c3 -5 1 -10 -4 -10 -6 0
-11 5 -11 10 0 6 2 10 4 10 3 0 8 -4 11 -10z m1420 -8 c-3 -3 -11 0 -18 7 -9
10 -8 11 6 5 10 -3 15 -9 12 -12z m-3335 -56 c0 -2 -7 -7 -16 -10 -8 -3 -12
-2 -9 4 6 10 25 14 25 6z m78 -43 c-3 -24 -7 -28 -33 -25 -57 5 -62 12 -25 32
49 27 62 25 58 -7z m2122 -33 c41 -21 71 -39 65 -39 -5 0 -44 18 -85 39 -41
21 -70 39 -65 39 6 0 44 -18 85 -39z m-360 -35 c-46 -18 -64 -17 -25 0 17 8
37 14 45 14 8 0 -1 -7 -20 -14z m495 -43 c-3 -3 -11 0 -18 7 -9 10 -8 11 6 5
10 -3 15 -9 12 -12z m200 -65 c-27 -38 -53 -99 -75 -182 -17 -65 -21 -102 -18
-200 l3 -120 -95 -7 c-52 -3 -118 -9 -145 -13 l-51 -6 -23 56 c-13 31 -26 85
-28 120 -7 79 12 215 39 277 11 26 17 51 14 56 -6 10 55 17 252 28 62 4 115
11 118 15 3 5 10 7 15 3 6 -4 4 -14 -6 -27z m-442 -99 c-35 -131 -37 -302 -5
-371 27 -59 27 -67 3 -67 -32 0 -52 71 -58 206 -5 106 -3 130 16 194 12 40 24
85 26 99 4 33 2 31 24 31 17 0 17 -4 -6 -92z m-122 10 c-20 -60 -25 -93 -25
-183 -1 -120 10 -172 49 -229 14 -20 25 -39 25 -41 0 -3 -30 -5 -67 -5 -38 0
-86 -5 -108 -10 -22 -6 -177 -17 -345 -25 -237 -11 -306 -11 -312 -2 -4 7 -17
53 -29 102 -24 100 -21 211 7 336 l15 66 87 7 c48 3 157 13 242 21 85 9 223
19 305 24 83 4 157 9 166 10 13 1 12 -10 -10 -71z m785 -123 c100 -66 275
-178 388 -249 113 -72 206 -131 206 -132 0 -6 -201 90 -333 157 -101 52 -142
68 -150 60 -13 -13 -25 -5 131 -90 72 -40 132 -74 132 -76 0 -2 -9 -1 -21 2
-16 5 -20 2 -18 -11 2 -10 36 -34 74 -55 39 -20 93 -53 122 -73 28 -19 72 -44
97 -54 l45 -19 3 -97 c2 -54 2 -98 1 -98 0 0 -129 63 -285 139 -155 77 -319
154 -363 171 -108 42 -177 83 -150 88 59 11 97 25 122 46 l28 24 115 -67 c175
-102 479 -246 491 -234 8 8 -2 18 -33 36 -193 111 -184 106 -508 274 -85 44
-190 100 -233 123 -43 23 -81 40 -84 37 -12 -12 6 -33 43 -52 56 -29 74 -45
74 -69 0 -18 -11 -25 -60 -39 -66 -20 -100 -16 -100 13 0 10 -3 25 -6 33 -4
11 0 14 13 11 17 -5 18 3 19 98 1 89 17 207 31 231 5 9 -11 19 209 -128z
m-1656 121 c0 -2 -6 -16 -14 -31 -43 -82 -47 -340 -8 -427 20 -46 20 -48 3
-48 -26 0 -38 18 -61 90 -26 83 -27 211 -1 300 30 103 39 120 61 120 11 0 20
-2 20 -4z m-96 -33 c-4 -16 -13 -46 -21 -68 -25 -68 -29 -232 -8 -301 10 -33
24 -69 31 -80 12 -21 11 -22 -22 -29 -52 -9 -352 -26 -575 -32 l-195 -5 -13
54 c-23 94 -25 226 -6 329 9 52 21 100 27 107 6 6 32 12 58 12 26 0 82 5 126
10 87 12 342 26 502 29 l102 1 -6 -27z m-844 -28 c0 -4 -6 -18 -14 -33 -7 -15
-21 -63 -31 -107 -20 -92 -16 -222 10 -294 19 -54 19 -51 -9 -51 -30 0 -40 26
-56 142 -14 93 -9 169 17 258 22 77 30 90 58 90 14 0 25 -2 25 -5z m-112 -67
c-34 -111 -34 -219 -2 -391 l6 -27 -186 1 c-134 2 -189 6 -197 15 -5 6 -15 40
-21 74 -15 76 2 242 30 316 18 44 23 49 53 52 36 3 265 18 310 21 l27 1 -20
-62z m3416 -252 c98 -48 176 -89 173 -92 -3 -4 -26 5 -50 19 -24 14 -95 47
-158 72 -63 25 -144 64 -181 86 -132 78 -79 57 216 -85z m56 23 c0 -11 -3 -11
-24 -3 -23 9 -20 23 4 17 11 -3 20 -9 20 -14z m-985 -148 c76 -38 153 -74 515
-241 228 -106 229 -110 5 -40 -66 21 -165 48 -220 60 -55 12 -156 39 -225 60
-69 20 -188 52 -265 69 -118 27 -238 57 -354 90 -14 4 43 12 140 20 90 7 166
14 168 17 2 2 38 4 80 4 68 0 84 -4 156 -39z m-675 -31 c0 -6 -11 -33 -25 -61
-37 -73 -47 -138 -36 -249 11 -110 25 -182 44 -219 56 -108 56 -108 104 -120
66 -17 46 -24 -34 -12 -37 6 -112 13 -166 17 -115 8 -103 -5 -144 164 -20 84
-24 118 -18 172 7 81 35 186 69 262 l25 56 90 0 c56 0 91 -4 91 -10z m-344
-67 c-85 -171 -104 -378 -47 -509 l20 -43 -27 4 c-188 31 -608 52 -708 36 -38
-6 -113 -15 -167 -19 -98 -8 -99 -8 -116 18 -10 14 -28 62 -41 107 -31 112
-26 226 16 333 l29 74 95 13 c178 23 518 42 903 51 l77 2 -34 -67z m484 21
c35 -17 191 -60 325 -89 196 -42 477 -115 595 -154 63 -22 156 -49 205 -61 50
-12 91 -23 93 -25 1 -1 -4 -33 -12 -71 -28 -137 -29 -204 -5 -267 12 -32 20
-59 18 -61 -2 -3 -56 2 -119 10 -63 8 -176 19 -250 25 -211 15 -241 21 -305
59 -93 56 -300 260 -240 236 26 -10 188 -41 345 -65 69 -11 157 -28 195 -39
73 -20 95 -19 95 3 0 16 -14 22 -76 30 -27 4 -89 22 -139 41 -87 33 -328 86
-450 99 -103 11 -360 47 -367 51 -12 7 -21 -17 -10 -28 5 -5 47 -16 92 -24 92
-16 87 -12 265 -209 l80 -88 -45 7 c-25 4 -85 11 -133 16 -48 5 -122 17 -163
26 -75 18 -76 19 -101 67 -26 52 -53 173 -53 239 l0 41 49 -7 c28 -4 85 -16
128 -27 43 -11 195 -40 338 -64 143 -24 310 -55 370 -69 135 -32 165 -33 165
-7 0 11 -9 21 -22 24 -130 33 -443 88 -658 117 -47 6 -132 22 -190 35 -58 13
-122 27 -144 30 l-38 6 4 52 c2 29 16 78 30 109 l26 57 39 -6 c21 -3 49 -12
63 -19z m-1650 -29 c0 -2 -11 -33 -24 -68 -51 -134 -56 -278 -16 -397 10 -30
16 -57 14 -60 -3 -2 -100 -4 -216 -3 l-211 1 -18 35 c-52 101 -101 303 -84
344 4 10 7 39 6 64 -2 26 2 50 8 53 6 4 61 9 123 12 62 3 165 9 228 13 155 11
190 12 190 6z m80 -4 c0 -6 -4 -13 -10 -16 -5 -3 -10 1 -10 9 0 9 5 16 10 16
6 0 10 -4 10 -9z m-682 -62 c-9 -34 -14 -40 -32 -35 -12 3 -60 6 -108 6 -96 0
-108 10 -68 50 17 17 33 20 119 20 l99 0 -10 -41z m-268 27 c0 -3 -30 -77 -52
-126 -20 -45 3 -275 33 -332 9 -16 3 -18 -55 -18 -35 0 -71 -2 -78 -5 -20 -8
-38 52 -45 151 -6 84 5 174 34 277 l16 57 74 0 c40 0 73 -2 73 -4z m250 -110
c0 -11 -25 -15 -117 -18 -65 -2 -119 -3 -121 -2 -1 1 0 9 4 18 5 13 24 16 120
16 92 0 114 -3 114 -14z m653 -232 c3 -6 13 -36 21 -65 8 -30 17 -62 21 -71 4
-10 3 -18 -3 -18 -33 0 -83 220 -67 295 8 37 10 33 15 -45 3 -47 9 -90 13 -96z
m-653 137 l0 -29 -120 -1 c-99 -1 -122 1 -126 14 -15 39 0 45 126 45 l120 0 0
-29z m3680 -81 c0 -3 -36 -12 -80 -20 -80 -16 -81 -16 -78 5 2 13 12 21 31 23
21 3 27 8 27 28 l0 25 50 -28 c27 -15 50 -30 50 -33z m-3670 6 c0 -10 -26 -15
-102 -19 -125 -7 -150 -6 -155 10 -4 12 14 14 205 21 38 1 52 -2 52 -12z m23
-68 c4 -12 5 -23 4 -24 -1 -1 -62 -6 -135 -10 -91 -5 -132 -4 -132 4 0 6 -3
17 -6 26 -5 13 8 16 83 19 48 1 109 4 134 5 41 2 47 -1 52 -20z m2478 2 c10
-6 19 -15 19 -20 0 -16 -26 -11 -51 10 -21 17 -22 19 -6 20 10 0 27 -5 38 -10z
m-2464 -76 c5 -16 -249 -25 -259 -10 -5 8 29 13 110 17 145 6 145 6 149 -7z
m1278 -84 c105 -6 262 -19 350 -30 88 -10 239 -26 335 -35 96 -8 204 -20 240
-26 36 -6 142 -19 235 -29 184 -21 112 -21 -155 0 -74 5 -189 14 -255 19 -66
5 -194 16 -285 25 -143 14 -473 40 -666 53 l-61 5 -31 -49 c-50 -79 -63 -122
-75 -246 -14 -151 8 -316 59 -441 14 -35 -15 -7 -37 35 -33 66 -58 158 -71
259 -9 82 -9 106 6 171 20 89 72 203 118 259 38 46 20 44 293 30z m-361 -72
c-47 -82 -85 -198 -91 -274 -7 -85 11 -207 46 -308 38 -109 63 -145 99 -145
114 1 811 -22 827 -27 25 -8 483 -26 740 -29 105 -2 282 -8 395 -14 113 -7
313 -15 445 -19 221 -6 232 -7 135 -14 -129 -8 -879 9 -975 23 -38 5 -104 9
-145 8 -41 -1 -104 1 -140 5 -87 8 -601 24 -1165 36 -253 5 -474 12 -491 16
-27 5 -36 17 -72 92 -45 93 -72 184 -56 189 35 13 38 21 25 75 -6 29 -15 94
-18 145 -6 87 -4 95 28 177 l33 86 38 0 c20 0 47 4 60 10 21 9 177 25 275 29
l42 1 -35 -62z m-441 -40 c-30 -76 -34 -81 -69 -82 -31 -1 -50 -25 -41 -50 10
-27 15 -256 5 -256 -4 0 -8 5 -8 10 0 6 -6 10 -14 10 -27 0 -37 211 -11 246
25 33 18 41 -39 42 -52 0 -55 -1 -65 -30 -24 -69 -6 -264 28 -301 4 -4 28 -3
54 2 27 5 50 5 53 0 3 -5 16 -9 29 -9 19 0 26 -7 31 -27 18 -82 29 -113 60
-175 19 -37 34 -70 34 -73 0 -2 -41 -2 -91 2 l-92 6 -41 45 c-97 105 -138 204
-137 337 0 117 51 250 122 317 29 27 94 44 180 47 l37 1 -25 -62z m-243 27 c0
-2 -14 -26 -30 -52 -51 -80 -72 -149 -77 -253 -4 -82 -2 -106 20 -173 26 -81
58 -137 111 -195 l31 -34 -75 8 c-60 5 -81 12 -106 33 -38 31 -96 136 -118
210 -38 128 -3 296 86 420 12 17 31 25 70 31 69 10 88 11 88 5z m980 -16 c16
-5 -6 -8 -61 -8 -66 -1 -90 3 -99 14 -11 14 -4 15 61 9 41 -4 85 -11 99 -15z
m60 -44 c96 -3 209 -10 250 -14 46 -5 80 -4 88 2 18 14 94 1 104 -17 5 -9 16
-16 23 -16 8 0 15 -4 15 -8 0 -9 298 -38 495 -47 66 -4 131 -7 144 -8 28 -2
40 19 14 26 -10 3 2 5 27 6 35 0 41 -2 28 -10 -31 -17 -20 -29 26 -29 25 0 47
-4 51 -10 3 -5 49 -9 103 -8 53 0 173 -9 266 -21 154 -20 242 -28 509 -48 l89
-6 -6 -31 c-28 -138 -30 -163 -13 -240 9 -42 17 -81 17 -86 0 -16 -162 -12
-356 9 -206 23 -468 31 -472 16 -1 -6 49 -13 125 -17 71 -5 199 -15 286 -24
88 -9 219 -19 293 -23 130 -8 155 -13 140 -28 -13 -13 -573 -8 -729 6 -81 7
-151 11 -155 7 -13 -13 21 -24 102 -31 44 -4 101 -9 126 -12 25 -2 176 -6 335
-8 160 -2 301 -4 315 -4 14 -1 31 -10 39 -22 l13 -22 -219 6 c-120 4 -301 11
-403 17 -102 7 -268 11 -369 11 -101 -1 -212 3 -245 9 -72 11 -520 29 -973 38
-290 6 -324 9 -340 25 -15 14 -15 19 -5 26 11 7 9 22 -12 80 -16 45 -26 93
-26 128 l0 55 103 -5 c56 -3 194 -12 307 -20 113 -9 283 -18 378 -22 146 -5
172 -4 172 9 0 11 -26 15 -127 20 -314 14 -806 51 -822 61 -6 3 -11 13 -11 21
0 12 11 14 58 10 31 -3 131 -13 222 -22 230 -22 693 -43 705 -32 26 23 -31 32
-335 48 -168 9 -338 21 -555 38 -79 7 -80 7 -83 35 -7 59 -29 58 436 23 112
-9 327 -21 479 -27 152 -5 279 -12 282 -14 4 -2 47 -5 96 -6 73 -3 90 -1 90
11 0 20 -126 36 -410 49 -253 13 -753 40 -881 48 l-81 5 7 32 c13 60 27 75 63
71 17 -2 111 -7 207 -10z m1383 -2 c-7 -2 -21 -2 -30 0 -10 3 -4 5 12 5 17 0
24 -2 18 -5z m-577 -42 c5 -6 41 -12 79 -14 l70 -3 -85 -2 c-47 0 -112 5 -145
12 l-60 14 66 1 c36 1 69 -3 75 -8z m1077 -8 c-7 -2 -21 -2 -30 0 -10 3 -4 5
12 5 17 0 24 -2 18 -5z m117 -14 c16 -5 4 -6 -35 -2 -33 3 -62 7 -64 9 -8 8
74 2 99 -7z m193 -16 c-7 -2 -19 -2 -25 0 -7 3 -2 5 12 5 14 0 19 -2 13 -5z
m141 -11 c2 -4 -12 -6 -32 -4 -56 5 -62 10 -15 11 23 1 44 -3 47 -7z m-3316
-114 c-2 -69 -7 -112 -13 -111 -18 3 -22 47 -6 60 14 10 14 12 -1 18 -30 12
-22 145 8 145 12 0 14 -21 12 -112z m-360 -466 c38 -6 41 -9 30 -23 -11 -14
-37 -15 -208 -8 -180 7 -227 3 -207 -18 4 -4 90 -9 190 -11 100 -2 188 -5 195
-7 9 -4 9 -13 -3 -42 -27 -71 -53 -188 -60 -275 -13 -153 28 -388 68 -396 21
-4 22 21 3 74 -35 101 -38 317 -5 455 12 52 30 113 40 136 18 43 19 43 70 43
45 0 50 -2 44 -17 -39 -93 -48 -144 -52 -303 -7 -219 5 -293 65 -413 2 -4 -8
-5 -22 -1 -19 5 -26 2 -26 -9 0 -10 13 -17 38 -21 62 -9 296 -34 477 -51 94
-9 211 -23 260 -30 50 -8 137 -19 195 -24 58 -6 168 -19 245 -31 77 -11 202
-25 277 -30 75 -5 156 -14 180 -19 24 -5 66 -11 93 -13 48 -3 50 -2 49 22 -1
14 -14 54 -29 90 -60 141 -81 442 -40 595 9 33 20 77 26 98 l10 37 94 0 c88 0
113 8 83 26 -11 7 -65 10 -195 13 -36 1 -43 4 -43 21 0 31 -31 38 -48 12 -17
-25 -42 -29 -42 -7 0 18 -21 20 -38 3 -12 -12 -64 -10 -846 23 -126 5 -231 11
-235 13 -3 2 -78 9 -166 16 -216 15 -221 16 -221 41 0 19 4 20 51 15 219 -27
712 -44 1740 -60 165 -3 307 -7 315 -10 8 -3 123 -12 255 -21 132 -8 285 -19
340 -25 55 -5 161 -10 235 -11 74 -1 182 -5 240 -9 95 -6 -717 -5 -885 2 l-70
3 -33 -55 c-33 -53 -35 -42 -6 29 15 37 13 47 -9 38 -12 -4 -32 -51 -83 -188
-44 -120 -55 -472 -19 -619 17 -72 55 -170 65 -170 18 0 17 18 -6 78 -43 115
-57 227 -50 402 7 171 24 278 55 337 25 47 25 45 1 -47 -60 -228 -45 -571 32
-727 30 -60 59 -62 200 -19 63 18 140 45 173 59 67 28 166 59 172 53 2 -2 -18
-11 -44 -21 -27 -10 -84 -32 -128 -51 -168 -69 -338 -124 -351 -113 -30 25
-175 61 -279 70 -60 5 -157 16 -215 24 -58 8 -211 26 -340 40 -129 14 -299 32
-377 40 -79 9 -207 26 -285 40 -79 13 -192 29 -253 35 -60 6 -180 20 -265 30
-85 11 -249 29 -365 40 -115 12 -245 28 -289 37 -43 8 -100 13 -127 11 l-49
-5 -20 42 c-24 49 -43 118 -66 230 -33 163 9 389 93 503 l24 32 167 -1 c92 0
186 -4 210 -7z m175 -8 c36 -6 37 -8 21 -25 -13 -14 -26 -17 -68 -12 -60 7
-58 6 -50 27 7 17 34 20 97 10z m237 -89 c47 -3 148 -12 225 -20 77 -8 248
-17 380 -20 132 -4 263 -8 290 -10 28 -2 115 -7 195 -11 193 -9 195 -9 193
-20 0 -5 -11 -56 -23 -114 -13 -60 -24 -160 -27 -235 -5 -115 -3 -144 20 -247
14 -64 35 -135 47 -157 l20 -41 -33 0 c-18 0 -125 14 -237 30 -227 34 -315 43
-925 96 -99 9 -206 18 -237 21 -49 5 -58 9 -58 24 0 11 -9 45 -20 77 -64 178
-72 392 -21 557 12 37 23 71 27 76 3 5 27 7 52 5 26 -3 85 -8 132 -11z m1360
-97 c0 -13 -5 -41 -11 -63 -39 -157 -51 -407 -25 -532 27 -124 59 -193 91
-193 23 0 25 29 5 93 -22 70 -39 221 -36 312 5 129 9 135 17 25 4 -63 12 -153
18 -199 10 -82 45 -206 62 -225 26 -28 -7 -33 -90 -15 -35 7 -48 14 -45 24 3
7 -1 24 -10 37 -8 13 -27 73 -42 133 -24 102 -26 122 -22 275 6 198 35 350 69
350 13 0 19 -7 19 -22z m100 8 c0 -2 -9 -32 -19 -67 -11 -35 -22 -75 -25 -89
-3 -14 -3 10 0 53 6 89 11 107 30 107 8 0 14 -2 14 -4z m1588 -41 c2 -2 0 -21
-5 -42 l-9 -38 -237 4 c-206 3 -237 2 -237 -11 0 -17 54 -23 318 -34 130 -6
152 -9 152 -23 0 -9 -7 -54 -15 -101 -8 -47 -15 -106 -15 -131 l0 -46 -60 -12
c-101 -20 -160 -41 -160 -56 0 -8 6 -15 13 -16 6 0 -10 -8 -38 -17 -33 -11
-51 -23 -53 -36 -3 -14 0 -17 14 -13 39 13 230 67 255 73 24 5 27 3 33 -31 4
-20 6 -39 3 -41 -4 -4 -229 -71 -347 -104 -131 -36 -246 -72 -305 -97 -67 -28
-255 -83 -285 -83 -10 0 -21 4 -25 9 -6 11 -37 222 -33 227 2 1 64 12 138 24
146 24 274 53 328 76 19 8 87 25 151 39 64 14 142 32 173 40 32 8 67 15 78 15
11 0 20 4 20 9 0 21 -52 17 -189 -14 -80 -19 -193 -41 -250 -50 -57 -8 -107
-17 -110 -20 -4 -2 -74 -18 -157 -34 -82 -17 -159 -34 -171 -37 -21 -6 -23 -3
-23 39 l0 45 48 11 c26 6 82 16 125 21 85 10 101 16 91 31 -4 6 -33 8 -73 5
-60 -5 -58 -4 24 10 50 8 133 18 185 22 82 6 95 10 98 26 4 17 -1 18 -59 12
-167 -17 -336 -40 -356 -47 -32 -12 -29 -29 5 -30 17 -1 8 -6 -28 -13 -30 -7
-59 -9 -64 -5 -4 4 -5 25 -1 47 l6 40 97 6 c150 10 493 37 530 42 34 5 42 21
16 31 -9 3 -80 1 -158 -6 -77 -7 -195 -16 -261 -21 -66 -5 -144 -12 -173 -15
l-53 -5 6 52 c10 82 36 199 55 244 l18 40 483 -3 c265 -2 485 -5 487 -8z
m-1641 -182 c-3 -10 -5 -4 -5 12 0 17 2 24 5 18 2 -7 2 -21 0 -30z m1500 -299
c-3 -3 -12 -4 -19 -1 -8 3 -5 6 6 6 11 1 17 -2 13 -5z m-52 -14 c-11 -5 -27
-9 -35 -9 -9 0 -8 4 5 9 11 5 27 9 35 9 9 0 8 -4 -5 -9z m175 -119 c-8 -5 -33
-12 -55 -15 l-40 -5 40 13 c48 17 79 21 55 7z m-214 -61 c-26 -10 -62 -21 -80
-24 -17 -3 -2 5 34 18 36 14 72 25 80 25 8 0 -7 -8 -34 -19z m-170 -51 c-33
-11 -64 -18 -70 -16 -13 4 84 36 109 35 11 0 -7 -9 -39 -19z"/>
<path d="M1802 4998 c2 -6 40 -24 84 -38 44 -15 186 -75 314 -133 129 -58 289
-126 355 -151 66 -26 143 -56 170 -67 28 -12 102 -38 165 -59 63 -21 154 -54
202 -74 99 -41 98 -41 98 -22 0 15 -125 72 -295 134 -171 63 -248 95 -415 167
-85 37 -182 77 -215 90 -33 12 -116 46 -185 74 -189 78 -287 106 -278 79z"/>
<path d="M1996 4722 c-3 -6 -3 -13 2 -15 20 -13 119 -47 135 -47 34 0 12 21
-43 41 -86 31 -87 31 -94 21z"/>
<path d="M3200 4496 c0 -17 31 -33 83 -43 15 -3 27 -1 27 5 0 8 -18 18 -97 49
-7 3 -13 -2 -13 -11z"/>
<path d="M3326 4441 c-9 -15 23 -36 36 -23 5 5 7 15 4 21 -9 13 -33 14 -40 2z"/>
<path d="M1130 4538 c0 -8 -13 -24 -30 -36 -16 -13 -30 -31 -30 -41 0 -14 -5
-18 -20 -14 -16 4 -20 0 -20 -21 0 -16 -4 -24 -13 -20 -19 7 -87 -60 -87 -86
0 -17 -4 -20 -19 -15 -30 9 -45 -29 -45 -115 -1 -77 21 -169 48 -205 20 -27
47 -11 59 34 6 25 11 30 21 22 9 -8 19 -5 35 13 25 27 21 47 -8 39 -22 -6 -35
31 -20 59 11 20 3 42 -11 33 -18 -11 -34 118 -19 146 6 11 12 19 15 17 2 -3
11 -42 19 -89 19 -101 41 -165 60 -173 23 -8 27 11 10 43 -20 41 -19 51 4 22
24 -31 56 -23 45 11 -6 21 -5 21 10 9 15 -13 22 -9 62 30 25 24 49 53 54 64 9
25 -34 243 -52 261 -21 21 -68 29 -68 12z m54 -55 c12 -38 36 -166 36 -189 0
-40 -17 -27 -30 24 -16 59 -28 182 -19 182 4 0 10 -8 13 -17z m-54 -53 c0 -27
11 -83 24 -124 24 -75 24 -86 0 -86 -18 0 -27 36 -15 58 7 14 6 22 -8 34 -31
27 -40 168 -10 168 5 0 9 -22 9 -50z m-196 -196 c11 -27 6 -61 -9 -74 -8 -7
-15 -17 -15 -22 0 -5 7 -16 15 -24 8 -9 15 -32 15 -52 0 -46 -14 -32 -29 30
-12 51 -15 141 -4 151 11 11 20 8 27 -9z"/>
<path d="M1607 4366 c-54 -57 -97 -108 -97 -114 0 -5 -9 -17 -20 -27 -23 -21
-26 -45 -5 -45 18 0 275 248 275 265 0 13 -21 25 -44 25 -7 0 -56 -47 -109
-104z"/>
<path d="M4072 3359 c8 -23 127 -74 141 -60 6 6 -12 20 -51 40 -63 32 -96 39
-90 20z"/>
<path d="M4115 2530 c-3 -5 13 -22 36 -37 23 -15 53 -36 68 -45 52 -35 89 -14
50 28 -41 44 -139 78 -154 54z"/>
<path d="M1498 3167 c-7 -8 -20 -12 -30 -9 -10 2 -26 1 -35 -3 -10 -4 -30 -7
-45 -6 l-27 2 5 -78 c2 -43 6 -104 8 -135 2 -32 0 -58 -5 -58 -17 0 -31 85
-28 174 3 84 2 91 -17 94 -19 3 -20 -3 -19 -110 1 -157 24 -204 90 -188 6 2
42 3 80 4 l70 1 -3 30 c-8 68 -1 231 10 253 10 19 9 25 -2 32 -21 13 -37 12
-52 -3z m-75 -276 c-15 -24 -30 163 -17 205 7 22 10 1 14 -86 3 -63 4 -117 3
-119z m67 220 c0 -6 -4 -13 -10 -16 -5 -3 -10 1 -10 9 0 9 5 16 10 16 6 0 10
-4 10 -9z m12 -164 c5 -63 2 -70 -23 -57 -15 9 -19 21 -19 64 0 48 2 54 19 49
15 -4 20 -16 23 -56z"/>
<path d="M1603 3145 c-16 -34 -16 -38 -1 -49 23 -17 30 -186 8 -203 -8 -6 -12
-14 -8 -18 9 -9 95 -13 109 -4 18 11 3 37 -22 41 -32 4 -40 44 -37 163 3 88 1
100 -14 103 -12 2 -23 -8 -35 -33z"/>
<path d="M1725 3149 c-9 -16 -19 -67 -22 -112 -5 -75 -3 -85 19 -117 31 -46
64 -51 79 -13 12 30 7 224 -6 256 -12 29 -52 21 -70 -14z m54 -134 c1 -80 -10
-110 -28 -77 -15 28 -14 158 1 185 12 22 12 21 19 -8 4 -16 7 -61 8 -100z"/>
<path d="M1177 3133 c-3 -5 -8 -47 -12 -94 -8 -95 7 -194 30 -203 18 -7 28 9
21 34 -3 11 -9 29 -12 40 -4 15 -1 20 15 20 19 0 36 -40 29 -70 -3 -16 30 -26
42 -13 5 4 2 32 -6 62 -7 30 -12 63 -9 75 2 12 6 51 10 89 5 65 5 67 -18 67
-31 0 -38 -9 -27 -30 5 -10 6 -43 2 -76 -6 -46 -11 -60 -26 -62 -18 -4 -19 1
-13 59 4 35 10 74 13 87 5 18 2 22 -14 22 -12 0 -23 -3 -25 -7z"/>
<path d="M2090 2640 c-25 -25 -36 -68 -21 -83 8 -8 14 -3 23 21 7 18 16 32 20
32 14 0 8 -55 -12 -113 -22 -64 -38 -201 -24 -210 5 -3 25 -2 44 2 40 8 48 34
13 39 -13 2 -23 6 -23 10 0 30 23 144 35 175 21 52 19 110 -3 130 -24 22 -28
21 -52 -3z"/>
<path d="M2202 2637 c-13 -14 -18 -27 -13 -33 5 -5 5 -34 0 -69 -5 -33 -8 -91
-7 -130 1 -38 0 -77 -2 -85 -4 -12 4 -15 35 -15 30 0 41 4 43 18 2 10 -3 17
-11 17 -8 0 -18 8 -21 17 -11 27 -7 174 5 218 22 82 11 105 -29 62z"/>
<path d="M1960 2614 c-6 -15 -14 -59 -18 -97 -6 -62 -9 -70 -29 -73 -28 -5
-29 13 -8 101 8 33 15 63 15 67 0 11 -105 21 -139 13 -35 -7 -42 -34 -12 -42
18 -5 19 -13 14 -116 -5 -116 3 -162 32 -173 26 -10 27 1 10 61 -13 43 -15 76
-10 130 7 77 21 109 47 104 13 -4 13 -11 2 -64 -25 -116 -14 -225 22 -225 13
0 15 8 9 50 -6 46 -5 50 14 50 16 0 21 -6 21 -25 0 -33 27 -85 44 -85 23 0 25
11 9 46 -14 29 -15 47 -5 141 7 59 13 119 15 132 3 34 -21 38 -33 5z"/>
<path d="M1683 2602 c-28 -22 -42 -85 -43 -190 0 -88 10 -122 36 -122 17 0 17
-3 -3 105 -8 44 4 26 25 -35 18 -52 44 -82 58 -67 4 4 -3 36 -15 72 -19 54
-23 80 -20 157 4 97 -1 109 -38 80z"/>
<path d="M1575 2577 l-35 -35 0 29 c0 24 -4 29 -24 29 -18 0 -28 -10 -42 -37
-33 -68 -31 -255 3 -289 26 -25 33 -3 17 56 -11 39 -13 75 -8 125 l7 70 9 -42
c6 -27 15 -43 24 -43 8 0 24 19 34 43 12 26 17 32 14 15 -3 -14 -6 -62 -7
-107 -2 -63 2 -84 15 -97 21 -21 42 -10 28 16 -15 28 -12 138 6 205 9 33 17
66 18 74 2 28 -25 22 -59 -12z"/>
<path d="M3430 1641 c0 -6 6 -14 13 -16 6 -2 120 -11 252 -20 132 -8 283 -18
336 -21 70 -5 98 -4 104 5 11 19 3 21 -76 27 -41 3 -126 9 -189 14 -230 19
-440 24 -440 11z"/>
<path d="M1670 1556 c0 -15 -5 -15 365 -35 99 -6 279 -17 400 -25 121 -9 308
-20 415 -26 107 -6 254 -15 325 -20 167 -13 265 -13 265 0 0 13 -27 18 -150
25 -347 19 -591 36 -705 49 -160 19 -421 34 -702 41 -179 4 -213 3 -213 -9z"/>
<path d="M2820 1405 c0 -12 15 -15 75 -15 60 0 75 3 75 15 0 12 -15 15 -75 15
-60 0 -75 -3 -75 -15z"/>
<path d="M3100 1397 c0 -11 22 -16 96 -22 60 -4 100 -3 106 3 15 15 0 19 -104
26 -82 6 -98 5 -98 -7z"/>
<path d="M3162 1308 c5 -14 112 -28 130 -17 25 16 -7 29 -68 29 -48 0 -65 -3
-62 -12z"/>
<path d="M1128 1050 c-39 -23 -55 -165 -22 -201 9 -10 25 -19 34 -19 25 0 36
-18 48 -75 9 -40 8 -54 -4 -72 -17 -26 -44 -21 -37 8 7 26 -32 26 -47 0 -14
-27 -4 -47 31 -61 61 -26 117 35 105 112 -11 70 -33 108 -70 123 -41 18 -50
39 -37 95 11 50 24 65 46 57 11 -5 14 -14 9 -32 -5 -20 -3 -25 14 -25 36 0 43
49 12 80 -21 21 -55 25 -82 10z"/>
<path d="M1330 1051 c-72 -10 -92 -33 -46 -51 l24 -9 -15 -68 c-20 -96 -14
-260 11 -278 34 -25 43 -10 31 50 -6 33 -8 92 -4 150 10 127 17 155 38 155 9
0 26 7 37 15 19 15 19 15 0 30 -11 8 -22 14 -25 14 -3 -1 -26 -5 -51 -8z"/>
<path d="M1448 1038 c-8 -7 -27 -60 -42 -118 -20 -81 -26 -129 -26 -212 0
-105 8 -134 32 -110 6 6 10 43 10 81 -1 39 3 73 8 76 12 7 16 -5 25 -66 3 -26
12 -55 20 -65 12 -17 15 -18 30 -3 14 14 14 19 0 58 -11 32 -15 86 -15 207 0
171 -3 183 -42 152z m-7 -221 c-13 -13 -14 5 -3 43 l7 25 3 -29 c2 -16 -1 -33
-7 -39z"/>
<path d="M1515 1020 c-9 -15 4 -30 27 -30 20 0 20 -3 13 -67 -10 -85 -7 -226
6 -274 10 -38 37 -59 50 -38 4 7 1 28 -5 48 -21 58 -27 175 -14 252 9 59 15
72 35 80 12 5 23 15 23 24 0 12 -13 15 -64 15 -36 0 -68 -4 -71 -10z"/>
<path d="M1744 994 c-26 -33 -27 -37 -11 -49 14 -10 17 -29 17 -107 0 -52 -3
-122 -6 -156 -6 -52 -10 -61 -28 -64 -38 -5 -31 -36 11 -47 46 -13 93 -14 93
-3 0 5 25 7 55 4 46 -4 55 -2 55 12 0 9 -7 19 -16 23 -14 5 -16 29 -14 187 1
100 2 191 1 204 -1 31 -34 29 -56 -4 -19 -29 -14 -54 11 -54 14 0 16 -7 10
-47 -4 -27 -9 -100 -13 -163 -6 -125 -13 -146 -43 -128 -17 11 -18 25 -13 208
5 169 4 197 -10 208 -13 11 -19 8 -43 -24z"/>
<path d="M1968 993 c-6 -16 -15 -105 -20 -200 -8 -138 -7 -177 4 -199 16 -33
40 -49 61 -41 23 9 56 167 63 304 l7 120 -31 21 c-42 30 -70 28 -84 -5z m52
-137 c0 -121 -8 -208 -19 -201 -4 2 -7 59 -6 127 3 175 4 188 15 188 6 0 10
-45 10 -114z"/>
<path d="M3178 883 c-72 -3 -98 -7 -98 -17 0 -10 46 -14 203 -19 322 -11 449
-9 445 6 -3 8 -47 14 -149 18 -79 4 -180 8 -224 11 -44 3 -124 3 -177 1z"/>
</g>
</svg>
