<?xml version="1.0" standalone="no"?>
<!DOCTYPE svg PUBLIC "-//W3C//DTD SVG 20010904//EN"
 "http://www.w3.org/TR/2001/REC-SVG-20010904/DTD/svg10.dtd">
<svg version="1.0" xmlns="http://www.w3.org/2000/svg"
 width="479.000000pt" height="521.000000pt" viewBox="0 0 479.000000 521.000000"
 preserveAspectRatio="xMidYMid meet">

<g transform="translate(0.000000,521.000000) scale(0.100000,-0.100000)"
fill="#000000" stroke="none">
<path d="M92 5112 c-39 -36 -41 -41 -32 -71 5 -18 14 -39 20 -47 13 -15 5 -34
-14 -34 -8 0 -19 -14 -27 -31 -12 -29 -11 -33 10 -50 13 -11 31 -19 40 -19 13
0 15 -8 13 -45 -4 -43 -2 -47 27 -58 25 -9 31 -17 31 -42 0 -40 16 -55 58 -55
25 0 35 5 39 20 8 29 16 25 52 -25 27 -38 37 -45 66 -45 25 0 40 -8 59 -31 14
-17 26 -39 26 -49 0 -10 9 -21 19 -25 21 -6 44 -42 178 -280 52 -93 101 -177
108 -185 7 -8 59 -98 116 -200 56 -102 127 -222 156 -268 29 -45 53 -87 53
-92 0 -5 -12 -10 -27 -12 -30 -3 -34 -21 -20 -83 7 -28 3 -33 -57 -77 -173
-125 -229 -302 -152 -475 28 -61 46 -81 180 -196 25 -21 55 -59 67 -84 20 -42
21 -54 15 -201 -5 -115 -3 -174 7 -220 8 -34 11 -65 8 -68 -5 -5 -27 63 -38
118 -8 40 -54 53 -120 33 -28 -8 -61 -24 -74 -34 -22 -17 -22 -21 -12 -87 6
-38 7 -73 3 -77 -4 -5 -29 -9 -56 -10 l-49 -2 -15 64 c-21 87 -39 99 -117 76
-32 -9 -69 -23 -81 -32 -23 -14 -23 -19 -17 -83 6 -64 5 -69 -14 -75 -33 -10
-48 -42 -76 -159 -27 -109 -27 -176 -2 -176 7 0 45 7 86 15 41 9 80 14 88 11
7 -3 13 -19 13 -35 0 -16 12 -87 26 -158 15 -70 30 -145 34 -166 6 -31 5 -39
-9 -43 -38 -12 -46 -25 -68 -105 -41 -150 -45 -176 -34 -198 12 -22 39 -21
146 5 33 7 168 34 300 59 132 25 260 51 285 59 73 24 153 36 168 24 6 -6 12
-7 12 -2 0 5 18 -21 40 -58 26 -43 64 -87 109 -124 l68 -58 -223 -225 c-123
-124 -224 -234 -224 -244 0 -9 11 -22 24 -29 21 -9 32 -6 71 17 26 15 72 50
104 78 31 27 90 80 131 117 41 37 113 101 159 143 l84 74 103 -45 c63 -27 104
-50 104 -59 0 -32 -20 -50 -62 -57 -77 -12 -106 -26 -128 -61 -20 -33 -20 -35
-4 -67 42 -82 192 -197 388 -299 228 -118 365 -158 543 -159 91 0 111 3 179
30 101 41 150 66 204 107 46 35 130 153 130 183 0 9 9 52 21 96 49 189 11 338
-137 526 -24 31 -44 60 -44 65 0 4 28 23 63 40 250 131 413 369 448 655 7 57
17 98 23 98 23 0 132 -59 163 -88 41 -38 74 -105 123 -248 47 -136 79 -210
122 -276 37 -59 60 -61 152 -18 77 36 81 47 72 178 l-7 87 43 -50 c24 -27 68
-76 99 -108 49 -50 60 -57 95 -57 50 0 157 35 178 58 9 11 18 47 22 98 10 118
-13 207 -97 382 -38 78 -73 161 -79 185 -30 135 -92 261 -179 364 -38 44 -79
98 -89 120 -11 21 -36 65 -56 97 -41 69 -43 90 -16 179 29 94 52 113 150 121
91 7 125 18 159 49 50 46 108 227 118 368 l6 75 -38 32 c-21 17 -63 44 -94 60
-60 32 -268 109 -366 137 -33 9 -73 23 -90 30 -16 7 -42 16 -57 19 -64 15 -17
23 160 30 103 3 218 13 257 21 142 30 297 130 332 214 13 31 13 36 -4 59 -10
14 -77 60 -148 104 -189 114 -215 131 -215 140 0 4 28 21 63 36 117 54 207
122 207 157 0 10 -395 119 -553 152 -73 16 -81 16 -110 0 -18 -9 -54 -27 -82
-40 -101 -48 -542 -281 -595 -315 -30 -19 -104 -59 -165 -89 -129 -64 -141
-64 -257 -8 -43 20 -82 34 -87 31 -4 -3 -11 -19 -14 -36 -4 -18 -30 -55 -66
-92 l-60 -61 -87 7 c-47 3 -116 13 -153 21 -36 8 -88 16 -115 18 l-50 2 -7
-40 c-12 -64 -50 -157 -75 -182 -22 -21 -29 -23 -87 -17 -70 7 -103 -4 -145
-48 -27 -30 -65 -133 -57 -158 6 -19 194 -173 281 -231 29 -18 62 -48 74 -66
20 -29 22 -42 17 -101 -4 -53 -44 -181 -62 -200 -1 -2 -43 16 -91 39 -107 51
-187 125 -205 192 -72 265 -129 361 -232 392 -28 8 -67 15 -87 15 -47 0 -145
-26 -194 -51 -21 -11 -42 -17 -47 -12 -4 4 -33 50 -63 101 -31 51 -90 143
-130 205 -40 62 -128 202 -195 312 -68 110 -133 216 -146 235 -12 19 -52 81
-89 138 -36 56 -66 108 -66 116 0 7 -16 27 -36 44 -33 30 -36 36 -30 71 5 30
2 42 -14 56 -15 14 -19 26 -14 49 7 41 -23 71 -61 62 -32 -8 -46 19 -20 37 15
12 15 14 -2 36 -17 21 -22 22 -42 11 -33 -17 -55 7 -56 63 0 40 -1 42 -31 42
-20 0 -43 11 -68 33 -31 27 -44 32 -90 32 -47 0 -57 -4 -94 -38z m96 -9 c-22
-6 -23 -22 -2 -51 9 -13 14 -25 11 -28 -2 -3 -14 12 -26 32 -17 28 -25 34 -35
25 -7 -6 -16 -8 -19 -4 -12 11 27 32 58 32 17 -1 22 -3 13 -6z m45 -44 c4 -14
11 -20 21 -16 13 5 14 3 3 -13 -15 -24 -32 -21 -33 7 -1 11 -4 25 -8 32 -4 6
-3 11 2 11 5 0 12 -10 15 -21z m-81 -26 c11 -20 13 -35 7 -52 -9 -23 -11 -23
-26 -8 -14 14 -14 18 -2 33 11 13 11 18 2 21 -14 5 -18 33 -5 33 4 0 15 -12
24 -27z m207 -46 c8 -11 6 -18 -9 -32 -23 -21 -26 -50 -6 -58 8 -3 30 -2 48 3
25 8 36 6 48 -6 13 -14 13 -17 -3 -27 -49 -31 -52 -35 -41 -54 6 -10 26 -19
45 -21 24 -3 40 -12 54 -32 11 -16 33 -47 50 -70 l29 -42 -37 -34 c-20 -19
-43 -34 -52 -34 -18 0 -58 53 -60 79 -1 11 -15 37 -31 58 -16 21 -29 49 -29
62 0 13 -8 29 -17 35 -14 8 -23 5 -48 -19 -18 -17 -34 -26 -38 -20 -24 34
-102 156 -102 160 0 3 18 5 41 5 32 0 42 4 46 20 3 12 14 20 27 20 11 0 28 5
36 10 21 13 36 12 49 -3z m-144 -7 c-3 -5 -10 -10 -16 -10 -5 0 -9 5 -9 10 0
6 7 10 16 10 8 0 12 -4 9 -10z m-111 -64 c-7 -17 -44 -23 -44 -6 0 10 41 31
48 25 1 -1 0 -10 -4 -19z m293 18 c-3 -3 -12 -4 -19 -1 -8 3 -5 6 6 6 11 1 17
-2 13 -5z m-247 -49 c10 -13 9 -15 -8 -15 -15 0 -20 5 -16 15 4 8 7 15 9 15 1
0 8 -7 15 -15z m325 -54 c-3 -6 -14 -11 -23 -11 -15 1 -15 2 2 15 21 16 32 13
21 -4z m-311 -16 c-17 -26 -29 -31 -38 -17 -6 11 5 28 24 35 28 10 31 7 14
-18z m54 -33 c2 -7 -3 -12 -12 -12 -9 0 -16 7 -16 16 0 17 22 14 28 -4z m118
-77 c-5 -14 -9 -15 -21 -5 -12 10 -13 16 -4 27 15 18 34 1 25 -22z m-106 5 c0
-13 -7 -20 -20 -20 -13 0 -20 7 -20 20 0 13 7 20 20 20 13 0 20 -7 20 -20z
m405 -192 l16 -33 -21 24 c-11 13 -20 27 -20 32 0 18 10 8 25 -23z m3650 -58
c83 -22 188 -50 235 -61 47 -11 87 -23 90 -26 6 -5 -32 0 -175 27 -55 11 -135
24 -178 30 -43 7 -112 22 -153 34 -68 20 -73 23 -58 38 18 18 13 19 239 -42z
m-305 22 c0 -10 -16 -25 -39 -37 -21 -11 -110 -56 -198 -100 -87 -45 -189 -95
-228 -113 -38 -17 -122 -61 -185 -97 -141 -80 -199 -107 -219 -102 -9 2 14 18
54 37 39 19 102 52 140 75 69 41 110 64 350 194 146 78 307 160 318 161 4 0 7
-8 7 -18z m137 -56 c21 -7 97 -24 168 -36 165 -28 185 -39 75 -40 -114 -2
-187 -13 -207 -32 -14 -15 -13 -18 9 -40 55 -52 141 -118 155 -118 8 0 29 -10
48 -23 24 -16 31 -27 25 -37 -10 -17 -2 -40 15 -40 7 0 16 -7 19 -16 4 -9 13
-14 21 -10 25 9 17 -9 -15 -32 -16 -13 -30 -28 -30 -35 0 -39 -34 -118 -62
-146 -46 -45 -146 -73 -271 -74 l-100 -2 2 67 c1 38 -2 69 -8 73 -7 3 -11 41
-11 90 0 51 -4 87 -11 91 -8 4 -10 43 -8 118 3 94 2 111 -11 111 -12 0 -15
-20 -17 -115 -1 -63 -7 -186 -14 -272 l-12 -158 -38 0 c-40 0 -287 38 -300 46
-4 2 -40 8 -79 13 -47 6 -79 16 -93 29 -12 10 -51 29 -87 42 -56 19 -69 28
-92 67 -33 52 -34 59 -10 67 9 4 89 47 177 96 154 85 215 115 215 105 0 -3
-22 -16 -50 -30 -27 -14 -50 -32 -50 -40 0 -8 3 -15 6 -15 14 0 244 123 244
130 0 5 -8 10 -17 12 -11 3 14 20 67 47 61 31 80 38 67 23 -11 -11 -16 -25
-13 -31 6 -9 82 30 196 100 54 33 48 32 97 15z m-3181 -398 c8 -16 13 -28 10
-28 -6 0 -46 66 -46 76 0 10 14 -8 36 -48z m1966 6 c26 -13 64 -24 85 -24 87
0 154 -40 183 -110 11 -26 73 -59 143 -76 16 -4 31 -13 34 -20 3 -7 -14 -48
-38 -91 -23 -43 -53 -98 -67 -123 -13 -25 -30 -52 -38 -61 -8 -8 -14 -21 -14
-27 0 -19 -8 -15 -74 31 -33 24 -90 61 -126 82 -36 20 -115 71 -176 111 -111
74 -134 85 -134 62 0 -13 203 -150 270 -183 42 -21 193 -124 235 -160 17 -15
2 -8 -32 14 -34 23 -69 41 -77 41 -35 0 -12 -30 59 -79 74 -51 91 -68 82 -77
-7 -8 -572 337 -662 404 -64 48 -231 142 -251 142 -2 0 -4 -7 -4 -15 0 -9 13
-23 28 -32 27 -15 28 -18 27 -99 l0 -84 45 -40 c41 -36 42 -39 15 -29 -16 5
-54 9 -85 8 -34 -2 -65 2 -80 11 l-25 15 28 3 c16 2 27 8 24 15 -4 14 -217 29
-231 16 -13 -11 3 -29 26 -29 11 0 39 -16 62 -36 114 -98 199 -166 271 -216
282 -193 386 -271 377 -280 -7 -7 -45 14 -114 64 -57 41 -137 98 -178 128
-192 138 -340 249 -399 297 -68 55 -81 62 -81 40 0 -13 73 -73 266 -219 135
-102 462 -336 476 -340 10 -4 -12 -98 -22 -98 -4 0 -76 49 -161 110 -85 60
-200 140 -257 177 -127 84 -289 200 -350 251 l-46 39 19 49 c10 27 31 62 47
77 27 28 30 28 106 22 74 -7 79 -6 109 19 33 28 64 92 84 171 6 28 13 51 14
53 2 2 29 -4 61 -12 116 -30 273 -48 309 -36 41 13 119 97 137 146 14 38 19
38 100 -2z m1756 -67 c53 -33 62 -43 57 -61 -19 -63 -106 -130 -230 -175 -71
-25 -107 -32 -241 -40 -219 -15 -274 -14 -274 3 0 10 26 15 113 18 87 4 127
11 180 31 99 36 135 77 167 184 7 23 26 54 41 68 16 14 29 34 29 45 0 20 2 20
48 -7 26 -15 75 -44 110 -66z m-3573 -129 c21 -35 45 -73 53 -85 8 -13 12 -23
9 -23 -3 0 -25 33 -49 73 -57 91 -60 97 -55 97 2 0 21 -28 42 -62z m1421 -109
c36 -27 209 -135 383 -240 174 -105 317 -195 318 -202 4 -18 -60 -140 -79
-151 -19 -11 -40 2 -223 142 -53 41 -139 103 -193 139 -112 76 -217 159 -284
224 -51 48 -59 78 -38 134 12 31 18 29 116 -46z m-1441 21 c9 -16 13 -30 11
-30 -3 0 -12 14 -21 30 -9 17 -13 30 -11 30 3 0 12 -13 21 -30z m2447 11 c181
-38 264 -51 317 -51 40 0 52 -3 44 -11 -15 -15 -137 -6 -268 20 -60 12 -136
27 -167 34 -32 6 -58 15 -58 19 0 12 31 10 132 -11z m23 -59 c61 -11 148 -32
195 -47 47 -15 96 -30 110 -34 21 -6 25 -14 28 -54 l3 -46 -93 43 c-102 48
-305 114 -380 123 -27 3 -48 7 -48 9 0 1 3 10 6 19 8 19 4 19 179 -13z m-2385
-92 c6 -11 8 -20 6 -20 -3 0 -10 9 -16 20 -6 11 -8 20 -6 20 3 0 10 -9 16 -20z
m1024 4 c6 -15 4 -15 -11 -3 -10 7 -20 15 -22 16 -2 2 3 3 11 3 9 0 19 -7 22
-16z m-964 -34 c6 -11 8 -20 6 -20 -3 0 -10 9 -16 20 -6 11 -8 20 -6 20 3 0
10 -9 16 -20z m2957 -39 c235 -78 440 -176 430 -206 -2 -6 -51 -11 -115 -13
l-111 -3 -3 33 c-2 25 -12 39 -43 59 -54 37 -114 53 -122 32 -4 -10 2 -21 13
-29 10 -7 39 -28 63 -46 l44 -33 -94 -10 c-52 -6 -101 -14 -109 -20 -8 -5 -33
-10 -55 -10 -31 0 -40 -4 -39 -17 1 -15 0 -16 -22 -1 -21 13 -24 23 -24 81 l0
65 87 -7 c48 -4 91 -8 96 -9 15 -3 20 23 5 27 -7 2 -52 16 -100 30 -69 21 -88
31 -88 45 0 10 -3 33 -6 50 -6 28 -4 31 19 31 14 0 92 -22 174 -49z m-1877 9
c0 -5 -4 -10 -9 -10 -6 0 -13 5 -16 10 -3 6 1 10 9 10 9 0 16 -4 16 -10z
m-1052 -82 c81 -136 144 -250 140 -254 -2 -2 -40 58 -83 134 -43 75 -87 152
-98 170 -10 17 -17 32 -14 32 3 0 28 -37 55 -82z m2047 40 c-5 -20 -2 -35 9
-47 16 -17 15 -19 -5 -24 -20 -5 -79 16 -79 29 0 3 14 23 31 44 36 44 53 43
44 -2z m395 -3 c69 -20 139 -39 155 -43 20 -5 31 -15 33 -30 4 -27 1 -27 -40
-2 -28 17 -266 98 -333 113 -11 3 -2 3 20 1 22 -2 96 -19 165 -39z m-2005 16
c72 -32 126 -127 172 -301 39 -147 84 -195 259 -283 178 -88 242 -158 280
-309 l16 -63 -28 -20 c-164 -119 -238 -198 -308 -333 -50 -98 -73 -170 -90
-281 l-11 -76 -69 -36 c-84 -44 -193 -72 -244 -63 -44 8 -137 48 -146 62 -3 6
7 13 23 17 48 10 61 35 82 156 10 63 22 121 25 130 2 9 -2 24 -11 32 -16 17
-45 15 -139 -5 -56 -12 -57 -11 -76 68 -14 59 -24 72 -67 83 -28 7 -28 8 -34
112 -3 57 -11 124 -18 149 -13 47 -36 72 -213 235 -75 70 -76 70 -93 150 -16
68 -16 88 -6 139 7 33 19 72 26 86 23 45 101 134 133 153 l30 17 20 -32 c10
-18 46 -78 78 -133 l59 -100 -3 -91 c-4 -101 9 -148 56 -197 36 -38 94 -67
134 -67 30 -1 37 -7 81 -78 26 -42 56 -91 67 -107 l19 -30 -64 -50 c-75 -58
-79 -75 -31 -131 l33 -38 39 29 c22 17 53 31 72 32 51 3 97 21 139 54 39 32
93 112 93 141 0 18 9 29 60 71 l32 27 -29 45 c-15 25 -34 47 -41 50 -7 2 -30
-11 -51 -30 -21 -19 -41 -35 -43 -35 -5 0 -98 120 -135 175 -16 23 -21 52 -25
126 -4 75 -10 105 -26 131 -33 53 -68 80 -119 93 -47 12 -49 14 -132 145 -95
150 -96 137 14 177 74 28 155 29 210 4z m677 -8 c21 -9 38 -20 38 -25 0 -4 7
-8 15 -8 10 0 15 -7 13 -17 -2 -14 5 -19 35 -21 21 -2 35 -7 31 -13 -10 -18
39 -59 64 -52 16 4 22 1 22 -11 0 -9 12 -19 28 -22 15 -4 32 -14 38 -22 7 -10
21 -13 38 -10 20 4 26 2 24 -11 -2 -12 4 -15 30 -13 21 1 43 -5 58 -17 l25
-20 -23 -3 c-13 -2 -24 -11 -26 -20 -3 -14 3 -18 28 -18 34 0 60 -19 60 -44 0
-13 11 -16 53 -16 33 0 60 -6 73 -16 18 -14 13 -15 -53 -10 l-73 6 -128 94
c-71 51 -187 132 -258 179 -161 106 -209 153 -112 110z m1568 -4 c0 -6 -4 -7
-10 -4 -5 3 -10 11 -10 16 0 6 5 7 10 4 6 -3 10 -11 10 -16z m-2598 -111 c76
-129 120 -209 116 -214 -3 -2 -37 54 -76 124 -40 70 -82 143 -94 161 -12 19
-18 32 -12 28 6 -3 36 -48 66 -99z m1203 63 c3 -5 1 -12 -5 -16 -5 -3 -10 1
-10 9 0 18 6 21 15 7z m992 -17 c-3 -3 -12 -4 -19 -1 -8 3 -5 6 6 6 11 1 17
-2 13 -5z m112 -25 c100 -27 231 -88 231 -107 0 -12 -13 -14 -82 -8 -69 5 -86
10 -98 27 -28 40 -70 73 -112 91 -59 23 -30 22 61 -3z m-2499 -3 c0 -2 3 -11
6 -20 5 -12 0 -16 -20 -16 -14 0 -26 2 -26 4 0 2 -3 11 -6 20 -5 12 0 16 20
16 14 0 26 -2 26 -4z m2111 -13 c13 -16 12 -17 -3 -4 -17 13 -22 21 -14 21 2
0 10 -8 17 -17z m231 -28 c38 -10 67 -20 64 -23 -3 -3 -41 1 -83 8 -43 6 -89
14 -102 16 -33 5 -39 14 -18 29 15 11 23 11 44 0 14 -7 57 -21 95 -30z m475
23 c-3 -8 -6 -5 -6 6 -1 11 2 17 5 13 3 -3 4 -12 1 -19z m3 -38 c0 -5 -5 -10
-11 -10 -5 0 -7 5 -4 10 3 6 8 10 11 10 2 0 4 -4 4 -10z m-2496 -112 c16 -29
22 -46 13 -38 -8 8 -29 42 -47 75 -18 33 -24 50 -14 38 11 -13 32 -47 48 -75z
m1801 45 c-15 -109 -49 -172 -110 -205 -15 -8 -13 -3 7 18 30 32 88 153 88
183 0 22 10 51 17 51 2 0 1 -21 -2 -47z m185 37 c15 -5 -1 -6 -40 -3 -36 3
-67 7 -69 9 -8 7 84 2 109 -6z m-2404 -57 c-50 -64 -80 -125 -95 -195 -12 -54
6 -173 35 -230 9 -18 69 -87 134 -153 136 -138 140 -147 140 -300 l0 -100 -36
-25 c-39 -26 -39 -19 -18 -147 5 -36 4 -43 -9 -43 -29 0 -41 75 -42 260 -1
156 -4 181 -24 232 -23 58 -64 103 -153 167 -110 79 -157 228 -113 360 8 26
36 72 62 102 44 52 137 129 155 129 5 0 -11 -26 -36 -57z m2414 17 c52 -7 115
-16 140 -22 168 -37 330 -68 358 -68 27 0 32 -3 28 -17 -3 -10 -26 -90 -50
-178 -25 -88 -53 -186 -62 -217 l-17 -58 -46 -2 c-25 -1 -55 -1 -66 0 -288 15
-387 -14 -449 -133 -16 -30 -32 -54 -35 -52 -3 1 -19 9 -35 17 -25 13 -28 18
-23 54 6 43 -15 97 -49 128 -37 32 -123 68 -174 72 -33 2 -59 11 -73 24 -12
11 -32 25 -44 31 -26 14 -30 50 -11 113 18 62 42 72 139 59 45 -6 106 -11 134
-11 47 0 57 4 98 40 49 44 79 106 91 193 6 42 10 47 29 42 12 -2 65 -9 117
-15z m1025 -6 c33 -3 62 -7 64 -9 2 -2 -4 -26 -13 -52 -8 -26 -25 -84 -35
-128 -11 -44 -28 -107 -38 -140 l-19 -60 -134 4 c-74 2 -137 5 -139 7 -7 7 80
361 94 383 5 10 87 8 220 -5z m-268 -7 c-3 -7 -24 -92 -47 -188 -24 -96 -48
-179 -54 -185 -6 -6 -25 -16 -43 -22 l-32 -10 15 46 c8 26 21 76 30 112 35
148 56 204 88 232 34 30 51 36 43 15z m398 -24 c-10 -58 -52 -205 -74 -256
-30 -70 -42 -64 -20 10 11 38 24 88 29 113 19 97 44 170 57 170 11 0 12 -9 8
-37z m-780 7 c14 -7 8 -8 -20 -3 -22 3 -42 7 -44 9 -9 8 45 2 64 -6z m52 -16
c-3 -3 -12 -4 -19 -1 -8 3 -5 6 6 6 11 1 17 -2 13 -5z m-1547 -77 c0 -18 -20
-94 -66 -255 -5 -18 -24 -5 -24 17 0 10 12 50 26 87 18 45 27 90 28 131 1 55
3 60 19 52 9 -5 17 -20 17 -32z m1753 23 c-3 -12 -8 -19 -11 -16 -5 6 5 36 12
36 2 0 2 -9 -1 -20z m-47 -12 c-4 -13 -14 -50 -22 -83 -9 -33 -24 -89 -35
-124 -10 -35 -19 -72 -19 -83 0 -40 23 -11 45 57 13 39 23 65 24 58 1 -7 -11
-49 -25 -95 -20 -65 -35 -92 -67 -125 -43 -45 -64 -55 -52 -25 5 9 22 69 40
132 75 268 89 310 103 310 10 0 12 -7 8 -22z m-2456 -18 c0 -5 -9 -10 -20 -10
-11 0 -20 5 -20 10 0 6 9 10 20 10 11 0 20 -4 20 -10z m831 -36 l37 -25 -18
-37 c-10 -20 -33 -83 -51 -139 -19 -57 -37 -103 -41 -103 -4 0 -15 12 -26 28
-18 26 -18 29 -2 92 9 36 26 98 36 137 10 40 21 73 23 73 3 0 22 -11 42 -26z
m-886 -138 c37 -60 74 -120 82 -133 9 -13 11 -23 5 -23 -6 0 -30 33 -53 73
-23 39 -59 99 -79 132 -54 88 -56 93 -38 75 9 -8 46 -64 83 -124z m13 57 c52
-82 81 -135 65 -118 -13 14 -123 184 -123 190 0 14 12 -1 58 -72z m74 -40 c17
-29 34 -56 39 -59 5 -3 9 -13 9 -22 0 -9 -19 14 -41 52 -22 39 -49 84 -61 100
l-20 31 22 -25 c13 -14 36 -49 52 -77z m35 34 c25 -50 7 -39 -27 15 -25 41
-27 48 -10 33 12 -11 29 -33 37 -48z m1205 37 c-27 -19 -48 -58 -57 -107 -4
-20 -11 -37 -16 -37 -12 0 -11 11 2 68 17 76 28 92 63 92 30 0 30 0 8 -16z
m1195 -6 c-3 -8 -6 -5 -6 6 -1 11 2 17 5 13 3 -3 4 -12 1 -19z m-2597 -45 c11
-21 43 -76 71 -123 70 -118 36 -78 -44 53 -36 59 -62 107 -57 107 5 0 19 -17
30 -37z m1094 7 c23 -11 82 -50 131 -85 50 -36 104 -72 120 -80 17 -7 46 -27
65 -44 41 -36 32 -33 95 -36 28 -1 65 -9 83 -19 31 -16 32 -19 32 -77 l0 -61
-32 5 c-201 29 -229 31 -325 19 -53 -7 -137 -26 -185 -43 -49 -16 -92 -28 -97
-25 -5 3 -11 23 -15 45 -3 22 -15 60 -26 86 -19 45 -19 50 -4 107 8 34 21 77
29 97 7 20 20 57 30 84 19 54 35 59 99 27z m1493 -2 c-3 -8 -6 -5 -6 6 -1 11
2 17 5 13 3 -3 4 -12 1 -19z m-2674 -8 c-3 -12 -8 -19 -11 -16 -5 6 5 36 12
36 2 0 2 -9 -1 -20z m334 -22 c-3 -8 -6 -5 -6 6 -1 11 2 17 5 13 3 -3 4 -12 1
-19z m-253 -124 c25 -38 43 -70 41 -72 -2 -2 -14 3 -27 12 -30 19 -68 85 -68
117 0 28 0 28 54 -57z m186 16 c6 -11 8 -20 6 -20 -3 0 -10 9 -16 20 -6 11 -8
20 -6 20 3 0 10 -9 16 -20z m-239 -52 c11 -21 11 -22 -4 -9 -10 7 -17 17 -17
22 0 15 9 10 21 -13z m2827 15 c-2 -5 -15 -31 -30 -59 -14 -27 -29 -66 -33
-87 -10 -51 -26 -69 -57 -65 l-26 3 24 75 c13 41 24 87 24 101 0 14 3 29 7 32
9 10 95 9 91 0z m-138 -26 c0 -7 -11 -48 -25 -91 -14 -43 -25 -85 -25 -92 0
-11 -29 -34 -43 -34 -3 0 -5 25 -6 56 0 31 -3 64 -6 74 -4 12 8 30 40 59 46
42 65 51 65 28z m-2338 -24 c9 -16 40 -57 68 -91 28 -35 49 -67 45 -70 -3 -4
-9 -2 -13 4 -4 5 -32 43 -63 84 -66 90 -73 100 -62 100 5 0 16 -12 25 -27z
m22 -106 c32 -44 55 -81 52 -85 -3 -3 -7 -3 -9 -1 -29 38 -97 140 -107 159
-18 35 -2 17 64 -73z m-60 6 c25 -38 53 -78 62 -90 9 -13 12 -23 8 -23 -8 0
-27 26 -112 158 -8 12 -12 22 -9 22 3 0 26 -30 51 -67z m-33 -28 c7 -14 4 -12
-11 5 -11 14 -25 34 -31 45 -7 14 -4 12 11 -5 11 -14 25 -34 31 -45z m1487
-38 c-3 -35 -24 -45 -49 -25 -12 10 -14 26 -11 68 l4 54 30 -33 c22 -24 28
-41 26 -64z m796 71 c8 -32 7 -101 -2 -113 -14 -19 -114 -75 -135 -76 -12 0
-60 -17 -107 -38 l-85 -37 4 -60 c1 -32 7 -67 12 -76 18 -34 10 -95 -17 -127
-14 -17 -30 -31 -35 -31 -5 0 -22 26 -38 58 -42 83 -112 173 -184 234 -34 29
-65 57 -69 62 -10 15 47 108 85 139 51 42 139 54 314 43 139 -9 141 -9 189 16
62 32 61 32 68 6z m-2304 -74 c56 -83 79 -131 33 -69 -45 62 -105 157 -93 150
6 -3 33 -40 60 -81z m287 -12 c18 -15 19 -20 8 -35 -16 -22 -27 -22 -23 1 2
11 -3 26 -11 35 -18 23 1 22 26 -1z m868 -12 c4 -6 -10 -9 -37 -9 l-43 2 35 7
c19 4 36 8 37 9 1 0 5 -3 8 -9z m1377 -16 c16 -33 4 -52 -53 -84 -25 -14 -67
-42 -93 -62 -27 -21 -54 -38 -60 -38 -6 0 -33 25 -59 55 l-48 54 82 41 c78 40
133 57 192 59 20 1 30 -6 39 -25z m-1427 -35 c8 -8 18 -39 23 -70 l9 -57 -34
-16 c-19 -9 -76 -57 -127 -106 l-93 -90 -85 0 c-58 0 -103 -6 -141 -19 l-57
-20 -1 37 c-2 62 2 75 45 146 22 37 46 77 53 89 14 24 81 67 160 102 51 23 68
25 146 21 57 -2 94 -8 102 -17z m-830 -20 c-23 -36 -141 -127 -167 -129 -21
-1 -4 17 25 28 18 6 58 34 88 61 56 52 65 58 54 40z m2308 -28 c24 -40 22 -56
-15 -120 -17 -31 -45 -99 -63 -151 l-32 -95 -26 40 -26 40 20 73 c25 92 98
242 119 242 3 0 13 -13 23 -29z m-2433 15 c0 -2 -8 -10 -17 -17 -16 -13 -17
-12 -4 4 13 16 21 21 21 13z m2098 -82 c23 -25 42 -49 42 -53 0 -9 -68 -31
-93 -31 -9 0 -51 -11 -94 -25 -91 -29 -100 -25 -105 48 l-3 48 75 34 c95 44
121 41 178 -21z m232 27 c0 -5 -12 -29 -26 -55 -19 -34 -32 -46 -49 -46 -13 0
-31 -3 -40 -6 -33 -13 -10 23 44 70 54 45 71 54 71 37z m-2446 -27 c5 -14 4
-15 -9 -4 -17 14 -19 20 -6 20 5 0 12 -7 15 -16z m1632 -21 c-7 -7 -26 7 -26
19 0 6 6 6 15 -2 9 -7 13 -15 11 -17z m-1593 1 c5 -5 -28 -44 -38 -44 -2 0
-15 -11 -29 -25 -14 -14 -30 -25 -36 -25 -6 0 9 17 34 38 24 20 45 43 45 50 1
13 14 16 24 6z m2578 -36 l22 -31 -39 7 c-21 4 -40 9 -42 11 -6 6 22 54 29 49
4 -2 18 -19 30 -36z m-1341 0 c86 -24 180 -67 180 -84 0 -6 11 -31 25 -56 26
-47 55 -165 55 -226 0 -32 -5 -41 -32 -56 -17 -11 -71 -59 -120 -107 -56 -56
-94 -86 -104 -82 -18 7 -19 3 16 80 17 37 28 73 25 81 -8 20 -49 10 -161 -39
-91 -40 -93 -40 -141 -27 -47 13 -48 15 -70 78 -12 36 -34 107 -49 158 l-27
93 64 65 c74 75 141 127 184 142 33 11 43 9 155 -20z m431 -58 c65 -51 82 -71
117 -137 40 -78 40 -78 21 -102 -12 -15 -19 -39 -19 -66 0 -46 31 -130 50
-137 6 -2 -6 -20 -27 -40 l-38 -37 -74 69 c-40 38 -95 80 -121 92 -47 22 -49
25 -50 63 0 50 -34 191 -56 238 -15 30 -15 39 -4 52 14 17 98 64 115 64 6 0
44 -26 86 -59z m575 18 c19 -9 37 -34 60 -82 19 -39 34 -76 34 -82 0 -19 -51
-77 -133 -150 -42 -38 -77 -77 -77 -86 0 -22 315 -338 361 -362 l35 -19 4 -86
c2 -47 4 -120 5 -161 l0 -75 -60 -22 c-33 -12 -63 -22 -67 -22 -12 -1 -70 121
-123 254 -99 251 -151 324 -270 382 -96 46 -167 99 -182 135 -22 51 -17 85 17
110 17 12 39 35 48 50 l18 28 57 -69 c85 -104 88 -104 214 20 68 67 107 124
97 141 -8 13 -75 26 -167 34 -49 3 -85 10 -80 14 4 5 43 16 86 25 42 9 80 21
83 26 7 11 8 11 40 -3z m101 -37 l-11 -40 -19 31 c-20 33 -12 48 24 48 14 0
15 -5 6 -39z m229 23 c37 -5 57 -16 88 -46 l41 -40 -30 7 c-16 3 -67 9 -112
12 -60 4 -83 9 -83 19 0 25 24 65 36 60 6 -2 33 -8 60 -12z m-2084 -99 c5 -57
1 -76 -28 -154 -18 -49 -36 -119 -40 -156 -7 -64 -9 -69 -56 -113 -28 -26 -55
-49 -60 -51 -16 -5 -3 192 17 264 31 114 116 275 146 275 13 0 17 -13 21 -65z
m-888 26 c7 -11 -17 -21 -50 -21 -23 0 -31 10 -17 23 10 10 61 8 67 -2z m2604
-25 l32 -11 -42 -50 c-46 -55 -124 -125 -138 -125 -5 0 -34 31 -64 68 -50 62
-55 72 -49 104 l5 36 112 -5 c61 -3 126 -11 144 -17z m447 -22 c39 -8 75 -21
81 -29 6 -9 28 -66 49 -129 36 -110 37 -116 34 -238 -4 -136 -15 -165 -67
-191 -41 -21 -82 -5 -145 57 -63 63 -106 143 -141 266 -35 121 -38 205 -11
279 6 15 79 10 200 -15z m-2977 -107 l29 -117 -26 -16 c-28 -19 -100 -29 -117
-17 -10 8 -64 207 -64 238 0 12 13 15 58 15 31 0 64 4 72 10 8 5 15 8 17 7 1
-2 15 -55 31 -120z m-422 68 c-19 -14 -76 -22 -63 -9 5 5 54 19 77 23 3 0 -4
-6 -14 -14z m1547 -20 c4 -8 2 -17 -3 -20 -6 -4 -10 -4 -10 -1 0 2 -3 11 -6
20 -3 9 -2 16 4 16 5 0 12 -7 15 -15z m-1474 -42 c6 -21 19 -73 28 -116 16
-77 16 -78 -4 -99 -14 -14 -39 -22 -71 -26 l-51 -4 -10 38 c-5 22 -17 74 -26
117 -9 43 -18 84 -21 92 -4 10 6 13 40 13 24 0 53 5 63 11 31 18 42 12 52 -26z
m3068 -12 c9 -20 22 -75 29 -123 14 -93 56 -247 85 -316 23 -52 23 -52 6 -52
-25 0 -346 307 -347 331 0 12 195 205 204 201 4 -2 15 -21 23 -41z m-3452 20
c-6 -5 -23 -12 -40 -16 l-30 -6 30 15 c35 17 53 20 40 7z m1855 -58 c7 -31 17
-65 23 -74 13 -20 10 -24 -18 -33 -36 -10 -47 6 -29 44 14 27 15 39 5 65 -13
38 -14 55 -2 55 5 0 15 -26 21 -57z m-933 30 c-34 -126 -53 -173 -70 -173 -9
0 -66 -12 -125 -26 -59 -14 -138 -32 -177 -39 -128 -25 -269 -55 -350 -75 -99
-23 -375 -80 -393 -80 -15 0 -14 8 15 137 12 52 22 74 35 79 24 7 38 -3 38
-27 0 -39 28 -88 61 -104 42 -22 108 -15 155 16 34 23 35 25 29 73 -3 27 -10
57 -16 67 -11 22 -5 26 50 30 l44 4 16 -60 c18 -66 40 -85 99 -85 85 0 135 55
125 139 -4 40 -3 51 8 51 8 0 30 3 50 6 l36 6 13 -51 c6 -28 16 -54 22 -57 18
-11 128 -4 156 10 49 26 63 48 52 87 -6 18 -10 44 -10 56 0 23 16 28 104 31
32 2 38 -1 33 -15z m-857 -75 c7 -40 19 -90 26 -112 19 -52 19 -54 -18 -76
-37 -22 -103 -27 -115 -7 -9 14 -41 144 -49 205 l-7 42 39 0 c22 1 53 7 69 14
17 7 33 12 36 10 3 -2 11 -36 19 -76z m2205 -165 c-12 -49 -49 -107 -84 -130
-39 -26 -48 -24 -29 7 11 18 11 23 -5 34 -15 12 -15 15 -2 26 8 7 15 20 15 30
0 15 47 46 57 37 2 -2 -8 -27 -22 -55 -31 -62 -33 -82 -4 -56 26 24 49 68 54
103 2 14 4 27 4 29 1 1 6 2 12 2 7 0 9 -10 4 -27z m650 -187 c-9 -44 -27 -106
-40 -138 -27 -67 -92 -178 -105 -178 -4 0 -15 11 -24 25 -49 75 -48 64 -12
137 19 37 42 107 52 155 l18 88 60 51 61 50 3 -55 c2 -30 -4 -91 -13 -135z
m1046 69 c51 -106 69 -181 69 -287 0 -87 0 -87 -32 -111 -18 -13 -60 -34 -93
-46 l-59 -22 -86 88 c-80 83 -150 188 -150 227 0 9 -11 49 -25 88 -31 89 -32
104 -2 55 31 -51 124 -125 166 -133 83 -16 138 56 148 194 5 64 8 72 16 52 6
-14 27 -61 48 -105z m-1923 100 c10 -4 9 -11 -7 -31 -12 -15 -21 -34 -21 -44
0 -10 -23 -33 -54 -53 -30 -20 -88 -66 -129 -102 -42 -36 -80 -65 -85 -65 -6
0 -12 21 -15 48 l-4 47 106 106 106 106 45 -4 c25 -2 51 -5 58 -8z m422 -31
c0 -16 -2 -16 -24 -8 -13 5 -14 9 -5 20 13 16 29 9 29 -12z m-1647 -72 c10
-48 28 -140 39 -205 l21 -117 -20 -23 c-32 -35 -53 -83 -53 -122 0 -39 -9 -43
-37 -17 -21 17 -24 33 -78 310 -14 74 -30 145 -36 158 -21 57 -14 69 54 86 96
24 90 28 110 -70z m512 -133 c-3 -3 -33 -9 -69 -13 -96 -10 -219 -58 -323
-127 -25 -16 -34 -18 -37 -7 -7 21 -39 210 -40 237 l-1 24 125 1 125 1 95 46
95 45 17 -100 c9 -55 15 -103 13 -107z m266 116 c91 -83 99 -93 99 -127 0 -21
-1 -38 -2 -38 -2 0 -31 9 -65 20 -34 10 -103 22 -154 26 l-91 7 7 56 c4 31 14
65 23 76 42 51 67 75 75 72 5 -1 54 -43 108 -92z m477 55 c-7 -10 -14 -17 -17
-15 -4 4 18 35 25 35 2 0 -1 -9 -8 -20z m-1455 -72 c9 -46 26 -129 38 -186 11
-57 18 -109 16 -117 -5 -12 -83 -32 -92 -23 -3 2 -14 53 -25 114 -11 60 -30
144 -41 187 -11 44 -18 82 -15 85 4 3 25 9 49 13 23 3 45 7 48 8 3 0 13 -36
22 -81z m-135 -40 c12 -51 24 -111 28 -133 3 -22 17 -100 31 -174 l26 -135
-27 -23 c-15 -13 -35 -23 -46 -23 -10 0 -24 -2 -32 -5 -7 -3 -19 -1 -25 3 -13
8 -46 147 -83 352 -11 63 -26 134 -32 158 -6 23 -8 45 -5 48 5 5 85 19 128 23
12 1 21 -21 37 -91z m1831 54 c9 -18 26 -123 36 -232 l6 -65 -75 -74 -74 -73
-93 65 c-52 35 -118 77 -147 91 l-54 27 49 52 c94 99 146 147 160 147 24 0 87
37 117 69 31 32 55 30 75 -7z m81 2 c0 -9 9 -18 20 -21 24 -6 25 -16 5 -33
-19 -16 -28 -7 -43 38 -9 26 -8 32 4 32 7 0 14 -7 14 -16z m-2111 -31 c6 -21
22 -109 36 -196 14 -87 28 -164 31 -171 6 -14 -24 -26 -67 -26 -23 0 -27 5
-33 43 -4 23 -22 105 -41 182 -46 194 -46 177 0 191 60 18 63 17 74 -23z
m-145 -30 c4 -21 20 -92 36 -158 54 -224 72 -335 58 -353 -34 -41 -131 -50
-142 -13 -3 9 -10 45 -16 81 -6 36 -26 133 -45 215 -18 83 -36 168 -39 190
l-6 41 68 16 c37 8 70 16 73 17 4 0 10 -16 13 -36z m1884 6 c19 -30 11 -32
-11 -3 -10 13 -14 24 -10 24 5 0 14 -9 21 -21z m-35 -27 c15 -17 12 -22 -52
-92 -52 -57 -69 -70 -74 -58 -3 10 0 19 9 22 16 6 19 47 4 62 -6 6 7 23 37 47
53 43 54 43 76 19z m-380 -107 c86 -17 103 -30 74 -53 -8 -7 -29 -9 -49 -5
-65 10 -134 -62 -122 -127 4 -21 -8 -38 -69 -98 -53 -52 -78 -71 -90 -66 -21
8 -22 20 -2 28 8 3 15 11 15 18 0 7 14 42 30 76 41 88 40 109 -10 130 -27 11
-46 28 -58 52 -25 51 -59 52 -104 4 -30 -31 -38 -35 -56 -25 -36 19 -72 13
-103 -18 -34 -35 -36 -61 -6 -120 25 -51 73 -81 128 -81 27 0 45 -8 69 -30 28
-26 30 -30 12 -30 -30 0 -52 -38 -52 -89 0 -35 7 -53 37 -92 50 -65 107 -103
155 -102 72 1 108 50 94 127 -6 30 -1 37 83 114 88 81 89 81 118 67 15 -8 60
-15 100 -17 58 -2 75 0 92 16 46 42 35 132 -21 166 -25 15 -27 19 -13 30 30
25 107 -16 304 -164 282 -210 450 -450 451 -642 0 -56 -41 -226 -68 -284 -37
-78 -139 -149 -291 -201 -65 -23 -191 -25 -301 -5 -239 43 -626 248 -717 378
-25 37 -25 39 -8 58 21 23 89 44 118 36 11 -3 28 -1 37 4 20 11 45 90 36 117
-4 11 -48 39 -113 72 -322 159 -427 263 -440 435 -7 90 9 127 81 193 57 51
183 115 272 138 75 19 265 14 387 -10z m198 -71 l24 -26 -35 -29 c-19 -16 -36
-25 -38 -19 -6 17 -27 11 -52 -15 -18 -19 -20 -27 -11 -38 9 -12 -20 -43 -149
-162 -201 -185 -200 -185 -216 -185 -7 0 -18 9 -24 20 -9 17 10 40 161 190
140 139 174 168 186 158 11 -9 24 -2 64 38 27 27 49 56 48 64 -3 39 8 40 42 4z
m902 -96 l32 -57 -35 -36 c-47 -49 -141 -115 -218 -154 l-64 -32 -61 58 c-34
32 -75 69 -91 81 l-29 22 46 40 c25 22 61 62 80 88 l35 47 137 0 137 0 31 -57z
m-1373 -21 c0 -5 -7 -4 -15 3 -8 7 -15 20 -15 29 1 13 3 13 15 -3 8 -11 15
-24 15 -29z m-630 -61 c10 -48 24 -74 40 -74 3 0 17 -3 33 -7 34 -9 36 -35 2
-35 -14 0 -89 -14 -168 -31 -246 -54 -270 -58 -357 -74 -47 -8 -105 -21 -130
-29 -25 -7 -74 -17 -109 -21 l-64 -7 6 28 c3 16 13 62 23 102 16 62 22 72 39
70 16 -2 22 -17 34 -75 13 -68 29 -91 46 -63 3 5 12 7 20 3 33 -12 103 8 139
40 l36 32 -15 55 c-8 30 -13 55 -12 56 1 1 22 5 47 9 l46 7 13 -51 c15 -61 40
-81 99 -81 83 0 139 52 127 119 -3 20 -8 44 -11 53 -4 14 3 18 38 21 24 2 48
4 55 5 7 1 16 -21 23 -52z m1160 30 c0 -11 -19 -15 -25 -6 -3 5 1 10 9 10 9 0
16 -2 16 -4z m-530 -169 c0 -17 -74 -89 -83 -81 -10 11 -8 53 3 75 13 22 80
28 80 6z m130 -151 c0 -31 -18 -46 -57 -46 -43 0 -42 11 4 48 41 33 53 33 53
-2z m-355 -181 c23 -18 40 2 -141 -161 -260 -234 -314 -277 -329 -262 -8 8
421 438 437 438 7 0 22 -7 33 -15z"/>
<path d="M230 4908 c-22 -37 -21 -51 4 -56 51 -10 95 31 74 71 -15 29 -56 21
-78 -15z m50 -8 c0 -5 -4 -10 -10 -10 -5 0 -10 5 -10 10 0 6 5 10 10 10 6 0
10 -4 10 -10z"/>
<path d="M457 4753 c-4 -3 -7 -23 -7 -44 0 -30 6 -42 29 -58 60 -43 74 -18 30
55 -33 54 -40 60 -52 47z"/>
<path d="M2805 3988 c-11 -18 -45 -52 -75 -76 -30 -25 -56 -48 -58 -52 -4 -11
202 -148 233 -156 18 -4 25 -2 25 8 0 13 -32 39 -143 116 l-48 33 40 29 c22
16 48 41 57 55 13 20 23 25 41 20 33 -8 31 28 -2 43 -38 17 -48 15 -70 -20z"/>
<path d="M3042 3959 c-8 -19 -32 -203 -32 -239 0 -6 6 -10 14 -10 18 0 25 31
36 154 9 101 0 144 -18 95z"/>
<path d="M1954 3606 c-4 -10 3 -23 17 -36 13 -10 18 -19 12 -20 -25 0 -12 -19
40 -56 28 -21 84 -63 122 -94 109 -87 558 -410 570 -410 3 0 5 6 5 14 0 7 -35
38 -77 67 -77 53 -393 289 -528 394 -38 30 -70 62 -70 71 0 9 -19 32 -42 51
-36 30 -44 33 -49 19z"/>
<path d="M2733 3258 c2 -7 10 -13 17 -13 7 0 15 6 18 13 2 7 -5 12 -18 12 -13
0 -20 -5 -17 -12z"/>
<path d="M2562 1026 c-23 -82 44 -232 122 -273 42 -22 114 -33 147 -21 15 5
41 28 60 50 64 80 48 199 -35 256 -40 27 -68 28 -123 1 l-43 -21 -34 21 c-18
12 -45 21 -59 21 -21 0 -28 -7 -35 -34z m235 -69 c-23 -35 -41 -34 -22 2 9 18
20 29 26 25 7 -4 5 -13 -4 -27z m50 -49 c-3 -8 -6 -5 -6 6 -1 11 2 17 5 13 3
-3 4 -12 1 -19z"/>
<path d="M2985 749 c-22 -42 -36 -55 -76 -71 -75 -31 -79 -88 -8 -103 27 -6
29 -9 23 -45 -6 -36 -4 -40 36 -69 24 -17 49 -31 56 -31 7 0 36 -20 65 -45 53
-45 64 -50 94 -39 34 14 75 132 75 220 0 70 -43 134 -128 192 -85 56 -102 55
-137 -9z m-5 -240 c0 -6 -4 -7 -10 -4 -5 3 -10 11 -10 16 0 6 5 7 10 4 6 -3
10 -11 10 -16z"/>
<path d="M2480 757 c-22 -11 -62 -61 -73 -90 -3 -9 -9 -9 -23 0 -69 46 -75 47
-103 19 l-26 -26 19 -48 c10 -26 22 -65 28 -87 25 -96 39 -123 78 -150 52 -36
118 -44 142 -18 21 23 58 126 58 160 0 13 11 45 25 72 29 55 27 81 -11 124
-35 40 -84 59 -114 44z m44 -204 c-7 -44 -24 -68 -24 -36 0 25 17 73 25 73 3
0 3 -17 -1 -37z m-34 -102 c0 -11 -4 -23 -10 -26 -6 -4 -10 5 -10 19 0 14 5
26 10 26 6 0 10 -9 10 -19z"/>
<path d="M2645 503 c-25 -25 -11 -71 35 -118 l40 -41 -14 -42 c-30 -85 15
-124 143 -121 43 1 87 -4 99 -10 17 -9 27 -9 43 0 20 10 21 16 14 97 -9 112
-32 168 -74 177 -21 4 -40 1 -59 -11 -39 -23 -66 -14 -130 41 -59 49 -72 53
-97 28z"/>
</g>
</svg>
