<?xml version="1.0" standalone="no"?>
<!DOCTYPE svg PUBLIC "-//W3C//DTD SVG 20010904//EN"
 "http://www.w3.org/TR/2001/REC-SVG-20010904/DTD/svg10.dtd">
<svg version="1.0" xmlns="http://www.w3.org/2000/svg"
 width="504.000000pt" height="495.000000pt" viewBox="0 0 504.000000 495.000000"
 preserveAspectRatio="xMidYMid meet">

<g transform="translate(0.000000,495.000000) scale(0.100000,-0.100000)"
fill="#000000" stroke="none">
<path d="M2525 4850 c-4 -6 -4 -80 0 -165 4 -84 4 -194 0 -244 -6 -78 -10 -91
-25 -91 -27 0 -30 -19 -24 -138 10 -178 -14 -231 -151 -331 -147 -109 -194
-178 -195 -287 0 -53 -4 -66 -30 -99 -16 -21 -30 -43 -30 -49 0 -7 -15 -16
-32 -21 -44 -13 -51 -56 -14 -81 31 -19 34 -58 9 -87 -17 -18 -18 -58 -19
-515 l-1 -496 -27 -21 c-24 -20 -26 -26 -26 -107 l0 -87 -42 -3 c-43 -3 -43
-3 -46 -45 -3 -38 -6 -43 -28 -43 -22 0 -24 -4 -24 -45 0 -31 -5 -47 -17 -53
-15 -9 -17 -36 -21 -216 -3 -145 -1 -206 7 -207 6 -1 17 -2 24 -3 6 0 12 -7
12 -14 0 -17 -56 -37 -129 -46 l-56 -6 0 74 c0 73 -14 109 -25 64 -3 -13 -4
-173 -3 -357 2 -257 6 -335 16 -339 9 -3 12 23 12 108 0 112 0 112 23 105 12
-4 59 -9 105 -12 97 -6 120 -23 32 -23 -45 0 -61 -3 -58 -12 5 -15 160 -31
306 -31 59 -1 92 -5 92 -12 0 -15 95 -115 109 -115 17 0 13 15 -9 35 -11 10
-20 23 -20 28 0 6 11 0 25 -13 16 -15 25 -35 25 -54 0 -59 38 -76 40 -18 1 15
3 82 5 150 2 67 7 127 11 133 3 6 0 18 -8 27 -10 13 -12 51 -10 158 l3 142 49
9 50 10 -1 -31 c-1 -17 -1 -90 0 -163 1 -72 -1 -148 -5 -167 -4 -23 -2 -36 5
-36 6 0 11 -36 13 -95 2 -55 7 -95 13 -95 6 -1 11 11 13 25 3 25 4 25 105 27
178 3 201 6 246 22 46 17 59 13 87 -23 6 -8 16 -11 21 -8 18 12 25 137 13 230
-11 82 -11 89 6 102 18 13 18 14 1 32 -9 11 -17 27 -17 37 0 14 8 17 43 14
l42 -3 6 -125 c8 -154 19 -260 29 -260 12 0 20 28 20 72 0 37 2 40 23 34 12
-3 40 -6 62 -6 32 -1 37 -3 23 -11 -10 -5 -18 -18 -18 -28 0 -10 -11 -28 -25
-41 -30 -28 -31 -35 -5 -62 17 -19 26 -20 86 -14 36 4 71 8 78 9 15 3 20 -81
5 -99 -9 -11 -9 -17 1 -29 10 -12 9 -22 -5 -51 -12 -25 -16 -52 -13 -85 3 -27
3 -49 1 -49 -2 0 -28 20 -59 45 -30 25 -59 45 -65 45 -6 0 -29 13 -53 29 -23
16 -59 33 -79 36 -63 12 -51 -14 73 -156 27 -31 36 -48 23 -41 -11 6 -23 18
-27 27 -3 9 -18 15 -35 15 -17 0 -54 5 -82 11 -45 10 -54 9 -64 -4 -7 -11 -16
-13 -26 -7 -8 5 -23 7 -34 4 -16 -5 -18 -4 -7 7 6 7 12 17 12 21 0 5 -56 8
-125 7 -69 -1 -125 -4 -125 -7 0 -3 12 -18 27 -34 14 -15 23 -31 19 -35 -4 -5
-16 2 -27 15 -10 13 -23 21 -28 18 -5 -4 -11 6 -13 21 -3 26 -6 28 -53 29 -83
2 -115 -6 -115 -27 0 -11 -2 -19 -5 -19 -9 0 -70 44 -73 53 -2 4 -47 7 -101 7
-59 0 -101 4 -108 11 -17 17 -42 4 -37 -18 3 -10 15 -23 26 -28 32 -15 37 -40
7 -31 -13 4 -32 8 -41 8 -12 -1 -18 9 -20 36 l-3 37 -80 5 c-44 3 -85 9 -92
13 -6 4 -69 9 -139 12 l-128 4 -69 62 -69 62 6 231 c3 127 5 286 6 354 l0 122
60 0 c45 0 60 4 60 14 0 22 -24 26 -176 26 -161 0 -144 9 -159 -82 l-6 -36
-70 -4 c-39 -2 -73 0 -75 4 -3 4 0 17 6 29 8 14 8 25 2 31 -15 15 -145 29
-265 30 -112 0 -141 -8 -119 -35 13 -15 21 -295 9 -314 -7 -11 -31 -16 -131
-27 -21 -2 -43 -10 -47 -18 -5 -7 -9 -76 -9 -154 l0 -141 -164 -164 c-90 -90
-206 -204 -257 -253 -52 -50 -88 -91 -82 -93 15 -5 200 162 328 296 50 52 153
148 230 213 77 66 150 128 161 139 12 10 25 19 28 19 13 0 5 -68 -10 -81 -8
-7 -22 -25 -29 -40 -8 -15 -31 -35 -52 -46 -23 -12 -39 -28 -41 -41 -5 -36 24
-26 78 24 31 29 50 41 50 32 0 -9 6 -21 14 -28 12 -10 0 -24 -75 -87 -49 -41
-104 -94 -122 -116 -18 -22 -94 -103 -169 -179 -127 -127 -152 -158 -129 -158
15 0 85 60 168 146 79 81 98 91 130 71 8 -5 43 21 99 73 98 93 104 92 103 -10
l0 -65 -14 40 c-8 22 -15 48 -15 58 0 28 -27 19 -39 -13 -5 -16 -17 -30 -25
-30 -9 0 -16 -7 -16 -15 0 -9 9 -15 25 -15 23 0 24 -3 27 -72 l3 -72 55 -3
c30 -1 77 -5 103 -7 55 -6 77 0 77 21 0 10 9 14 28 13 45 -3 52 -1 52 20 0 10
6 25 14 32 9 8 11 27 8 58 l-4 45 63 -61 c147 -140 209 -186 209 -154 0 27
-308 307 -311 282 0 -4 -4 3 -9 16 -12 28 -36 28 -45 -1 -6 -18 -9 -13 -15 27
-11 60 -17 76 -30 76 -5 0 -10 -23 -10 -54 0 -52 -1 -54 -31 -60 -17 -3 -35
-3 -40 0 -12 7 -11 101 1 109 15 9 12 55 -3 55 -21 0 -35 20 -29 43 6 22 6 22
12 -1 3 -16 17 -28 42 -37 20 -7 57 -30 81 -51 24 -21 75 -61 113 -88 38 -27
84 -68 102 -91 18 -23 93 -89 167 -146 158 -122 158 -129 1 -111 -140 17 -246
16 -246 -1 0 -11 -50 -14 -257 -15 -300 -2 -419 -11 -387 -29 62 -35 512 -43
654 -12 39 8 98 10 205 4 176 -10 235 -11 330 -5 39 2 115 0 171 -5 73 -6 103
-5 108 4 12 19 63 13 69 -8 7 -28 43 -31 360 -31 158 1 304 -4 325 -9 20 -5
75 -13 121 -16 51 -5 78 -11 70 -16 -7 -4 -11 -10 -8 -13 3 -3 75 -10 162 -16
126 -9 161 -9 179 2 21 12 17 14 -47 19 -57 4 -61 6 -23 7 50 2 78 10 78 22 0
4 -66 10 -147 14 -82 3 -215 13 -298 21 -82 8 -188 15 -235 15 -47 0 -102 5
-124 11 -23 6 -42 7 -48 1 -5 -5 -29 -5 -56 -1 -26 4 -78 8 -117 8 -38 1 -97
6 -130 11 -33 6 -115 10 -183 10 -131 0 -172 10 -210 50 -13 15 -22 18 -27 10
-4 -6 3 -22 16 -36 l22 -24 -36 -2 c-20 -1 -44 -2 -52 -2 -8 -1 -16 3 -17 9
-2 5 4 10 12 11 8 1 19 2 23 2 16 3 -65 91 -166 180 -127 113 -294 243 -306
240 -5 -2 -44 26 -86 60 -42 35 -78 62 -79 60 -2 -1 -7 -11 -13 -21 -9 -18
-11 -18 -38 5 -24 21 -28 33 -33 96 -3 48 -1 72 6 72 6 0 14 -5 17 -10 4 -6
50 -48 104 -93 54 -45 187 -161 296 -257 273 -241 325 -282 325 -252 0 5 -55
55 -122 113 -68 57 -170 149 -228 204 -58 55 -146 137 -195 181 -86 76 -90 81
-78 104 7 14 13 33 13 43 0 12 8 17 30 17 30 0 37 -8 21 -25 -5 -6 -12 -30
-16 -54 l-7 -43 53 6 c30 4 64 12 76 18 19 9 28 7 56 -15 19 -14 37 -24 40
-21 2 3 33 -27 68 -66 41 -46 68 -69 77 -65 10 4 45 -25 101 -83 47 -48 115
-112 151 -142 35 -30 81 -70 101 -88 20 -17 42 -32 48 -32 21 0 11 23 -26 56
-36 32 -37 33 -10 24 50 -18 59 -14 52 23 -4 18 -4 28 1 24 5 -5 11 -57 14
-117 3 -60 8 -112 13 -116 4 -4 18 -2 30 5 15 8 51 11 98 9 44 -2 74 1 75 7 2
23 17 44 26 39 6 -4 15 0 20 7 6 9 7 3 3 -20 -9 -44 2 -51 96 -51 80 0 111 14
87 38 -17 17 -5 15 37 -5 19 -9 35 -22 35 -29 0 -6 11 -19 25 -28 32 -21 157
-22 174 -2 8 10 9 16 1 21 -5 3 -10 20 -10 36 l0 30 30 -23 c17 -12 30 -27 30
-33 0 -28 37 -45 97 -45 46 0 62 -4 67 -16 8 -21 26 -8 26 21 0 19 4 22 22 17
13 -3 30 -15 39 -26 14 -17 30 -21 79 -23 34 -1 64 -4 67 -7 16 -16 33 -5 27
18 -4 16 -1 25 10 29 13 5 14 12 6 32 -6 15 -10 60 -10 101 l0 75 30 -17 c16
-10 65 -49 107 -86 43 -37 84 -68 91 -68 7 0 29 -12 47 -26 31 -23 152 -61
162 -50 3 3 0 46 -7 96 -6 50 -9 98 -6 106 10 26 8 282 -2 301 -16 29 -3 263
14 263 8 0 14 5 14 10 0 6 15 10 34 10 l33 0 0 -285 c0 -157 2 -287 4 -290 6
-6 218 -7 304 -1 70 4 343 14 528 18 86 2 97 5 97 20 0 16 6 17 40 12 49 -8
52 5 5 30 -19 11 -35 26 -35 33 0 10 9 7 31 -11 35 -30 59 -34 59 -9 0 14 2
14 20 -2 11 -10 23 -15 28 -11 4 4 7 71 7 149 0 78 4 147 8 154 4 6 8 85 8
175 l2 163 53 1 54 0 -2 -288 c-1 -158 1 -290 4 -294 20 -19 25 34 26 310 l1
306 -27 7 c-32 8 -121 10 -142 3 -12 -4 -16 11 -21 83 -3 48 -9 90 -13 94 -3
4 -62 7 -131 8 l-124 2 -6 -61 c-4 -34 -5 -125 -3 -204 2 -89 -1 -142 -7 -143
-5 -1 -25 -2 -43 -3 -33 -1 -34 -2 -37 -51 -8 -103 -17 -165 -25 -165 -8 0
-20 97 -20 164 0 23 -4 47 -9 54 -5 9 -48 18 -120 25 l-112 11 3 243 3 242
-35 16 c-27 12 -73 16 -195 17 -99 1 -163 6 -167 12 -12 18 -31 -11 -31 -46 0
-18 1 -103 3 -188 l3 -155 -28 -3 c-15 -2 -32 1 -38 7 -6 6 -21 11 -34 11 -13
0 -31 8 -41 18 -26 26 -168 39 -191 18 -11 -10 -46 -16 -102 -18 l-87 -3 -10
44 c-6 28 -7 54 -1 69 5 13 6 28 3 33 -4 7 -61 8 -150 5 l-144 -4 0 33 c0 33
0 33 38 25 20 -5 92 -10 159 -12 106 -3 123 -5 127 -20 4 -16 21 -18 178 -19
95 -1 203 -2 240 -3 65 -1 81 5 57 20 -6 3 -63 9 -127 13 -87 4 -116 9 -114
19 1 7 2 73 3 146 0 108 3 137 15 147 13 10 14 26 9 83 -4 39 -12 74 -17 77
-5 3 9 18 32 33 68 45 69 44 -162 206 -46 32 -48 35 -48 82 0 39 -6 56 -35 94
-19 25 -35 53 -36 62 -6 133 2 777 9 807 19 73 18 113 -3 129 -15 10 -17 17
-8 27 12 16 31 119 25 137 -2 7 -12 12 -22 12 -10 0 -22 10 -26 22 -3 12 -13
28 -20 36 -9 9 -14 37 -14 82 0 90 -16 165 -47 218 -19 33 -47 58 -116 102
-154 99 -171 112 -197 165 -26 52 -32 138 -15 214 6 25 4 37 -6 45 -31 25 -39
59 -44 188 -12 279 -33 411 -60 368z m48 -712 c10 -100 32 -159 79 -209 23
-24 41 -48 39 -53 -6 -26 51 -107 66 -92 8 7 -24 66 -41 78 -8 6 -8 8 0 8 15
0 133 -76 167 -108 16 -15 34 -49 43 -80 17 -58 11 -80 -13 -44 -9 12 -22 22
-29 22 -8 0 -14 7 -14 16 0 12 -6 15 -22 11 -14 -4 -29 0 -40 10 -27 24 -30
12 -13 -53 8 -32 15 -69 15 -82 l0 -23 -157 6 c-87 4 -164 8 -170 11 -18 5
-17 154 1 219 7 28 25 76 39 107 29 65 42 218 19 226 -7 2 -12 22 -12 48 0 36
3 44 19 44 15 0 19 -10 24 -62z m-83 -223 c-5 -13 -18 -41 -28 -62 -27 -53
-42 -131 -42 -218 l0 -75 -45 0 -45 0 0 50 c0 63 0 63 -11 76 -6 8 -4 18 7 29
13 12 14 19 6 24 -9 5 -5 15 13 31 13 12 22 26 20 30 -5 7 114 136 127 139 4
0 3 -10 -2 -24z m163 -436 c81 -7 147 -15 147 -18 0 -3 -11 -11 -24 -17 -18
-9 -25 -8 -33 5 -16 25 -43 -4 -43 -45 l0 -34 -115 0 -115 0 0 30 0 29 82 3
c51 2 83 7 85 15 6 16 -73 24 -268 28 -204 3 -211 3 -206 13 7 10 314 5 490
-9z m-495 -72 c2 -28 -1 -37 -12 -37 -12 0 -16 11 -16 41 0 52 24 48 28 -4z
m160 13 c35 0 42 -3 42 -19 0 -16 -10 -20 -71 -26 -38 -4 -72 -6 -74 -4 -2 2
-7 17 -11 33 -7 29 -7 29 32 23 21 -4 58 -7 82 -7z m667 -41 c5 -5 -17 -9 -55
-9 -67 0 -110 8 -110 19 0 10 154 0 165 -10z m-905 -5 c0 -11 -5 -14 -16 -10
-9 3 -18 6 -20 6 -3 0 -2 5 1 10 10 16 35 12 35 -6z m980 1 c0 -8 -7 -15 -15
-15 -16 0 -20 12 -8 23 11 12 23 8 23 -8z m-866 -67 c-3 -13 -8 -25 -10 -27
-6 -7 -22 10 -27 29 -4 16 0 20 20 20 21 0 23 -3 17 -22z m144 10 c-3 -7 -23
-14 -46 -16 -33 -2 -42 0 -42 12 0 12 11 16 46 16 32 0 44 -4 42 -12z m240 6
l92 -7 0 -27 c0 -28 15 -40 51 -40 22 0 26 -29 7 -48 -10 -10 -10 -17 0 -32
10 -16 13 -154 14 -586 2 -556 3 -566 22 -574 20 -7 20 -7 -2 -19 -12 -6 -43
-13 -69 -15 -38 -3 -50 -8 -58 -25 -9 -20 -16 -22 -75 -19 l-65 4 -5 34 -5 35
-67 3 -68 3 0 32 c0 18 -3 48 -6 68 -5 29 -2 40 15 56 20 18 21 32 25 294 3
150 8 368 12 483 l7 209 94 -6 c128 -9 175 15 96 48 -30 13 -56 15 -121 9
l-82 -6 2 66 3 66 46 0 c25 0 87 -3 137 -6z m340 -4 c60 0 62 -1 62 -26 0 -16
7 -28 18 -31 21 -5 42 -49 41 -83 -6 -106 -9 -874 -4 -907 5 -33 10 -43 25
-43 28 0 40 -30 40 -100 0 -46 4 -62 16 -67 9 -3 33 -21 53 -39 20 -19 47 -40
61 -46 42 -21 120 -73 120 -80 0 -3 -16 -15 -35 -27 -36 -21 -47 -55 -24 -78
7 -7 9 -31 4 -69 -4 -33 -8 -127 -9 -211 l-1 -152 -29 -5 c-16 -3 -59 -6 -97
-6 -57 0 -67 3 -63 15 4 8 5 15 3 15 -2 1 -56 3 -119 7 -63 3 -117 7 -119 9
-2 2 -3 83 -2 181 1 195 -6 246 -32 251 -11 2 -17 -3 -17 -15 0 -13 -6 -8 -20
15 -26 42 -26 42 13 42 46 0 59 12 51 44 -6 26 -5 27 14 15 19 -12 23 -11 36
6 25 33 20 47 -18 44 -51 -5 -62 13 -69 119 -3 52 -11 100 -17 107 -8 10 -11
139 -9 464 l3 449 58 7 c56 7 81 21 60 34 -5 3 -11 15 -13 26 -4 16 -13 21
-56 23 -49 3 -52 5 -59 35 -4 20 -2 33 5 35 6 2 11 12 11 21 0 25 11 33 35 27
11 -3 48 -6 83 -6z m-188 -25 c0 -8 -4 -15 -10 -15 -5 0 -10 7 -10 15 0 8 5
15 10 15 6 0 10 -7 10 -15z m-402 -66 c-2 -19 -10 -23 -43 -24 -108 -3 -115
-4 -115 -25 0 -11 -7 -20 -15 -20 -10 0 -15 10 -15 28 0 38 39 57 123 60 66 3
68 2 65 -19z m-238 -505 l0 -486 -24 -19 c-24 -19 -25 -23 -20 -104 5 -72 3
-85 -10 -85 -8 0 -20 -8 -26 -17 -9 -14 -10 -8 -4 27 5 25 8 65 8 90 1 28 10
59 24 84 l23 38 -3 479 c-3 451 -2 479 15 479 16 0 17 -30 17 -486z m120 336
c0 -10 7 -23 16 -28 13 -7 16 -41 16 -248 0 -131 2 -247 5 -256 2 -10 21 -22
44 -28 23 -6 39 -17 39 -25 0 -12 -14 -15 -63 -15 -36 0 -68 -5 -75 -12 -21
-21 -14 -47 13 -54 24 -6 25 -8 10 -23 -16 -19 -19 -49 -9 -100 10 -46 24 -38
24 14 0 27 4 44 11 43 6 -2 16 5 22 14 9 14 8 20 -8 32 -20 15 -20 15 1 16 23
0 34 -23 34 -75 0 -30 21 -99 33 -111 12 -13 -15 -34 -42 -34 -15 0 -33 -6
-39 -12 -10 -10 -17 -10 -32 0 -13 8 -21 8 -26 1 -11 -18 13 -32 65 -37 50 -4
51 -5 51 -38 0 -39 -4 -40 -53 -19 -53 22 -98 20 -104 -5 -3 -11 -14 -20 -24
-20 -17 0 -19 8 -19 74 0 68 2 76 26 93 l26 19 -2 427 -1 427 31 0 c23 0 30
-4 30 -20z m-230 -1085 c30 -17 70 -19 70 -4 0 8 23 10 78 6 94 -6 151 -32
182 -82 12 -19 26 -36 31 -36 14 -2 22 -5 53 -18 16 -6 37 -9 47 -6 13 4 19 1
19 -9 0 -12 -10 -16 -37 -16 -31 0 -40 -5 -50 -26 -14 -31 0 -39 50 -30 l32 6
-3 -128 c-3 -97 0 -131 11 -146 30 -40 36 -9 36 184 0 113 -3 192 -9 195 -6 4
-7 13 -1 24 8 14 22 16 80 15 94 -4 121 -23 121 -88 l0 -46 -64 0 c-63 0 -92
-12 -60 -24 9 -3 51 -6 95 -6 l79 0 0 -124 c0 -100 3 -125 15 -129 17 -7 31
11 27 35 -2 12 2 15 18 11 13 -4 20 -14 21 -32 1 -14 3 -42 4 -63 4 -35 3 -36
-36 -40 -21 -2 -41 1 -43 7 -8 21 -28 -15 -33 -59 -3 -25 -10 -46 -14 -46 -5
0 -9 -9 -9 -20 0 -15 -7 -20 -25 -20 -13 0 -28 -6 -32 -14 -6 -10 -34 -15 -98
-17 -100 -4 -103 -2 -91 64 l6 32 105 1 c112 1 124 6 149 55 17 34 16 35 -45
44 -38 6 -49 4 -56 -9 -11 -20 -153 -37 -153 -18 0 6 -15 18 -32 27 -28 14
-54 15 -163 10 -123 -6 -131 -8 -151 -32 -21 -25 -23 -25 -123 -18 l-101 7 0
123 c0 67 -3 135 -6 151 -4 24 -1 31 18 39 31 13 36 51 9 60 -12 3 -30 3 -41
0 -13 -4 -20 -2 -20 7 0 7 9 19 20 26 15 9 20 23 20 57 0 35 4 45 16 45 13 0
15 9 12 45 -3 42 -2 45 22 45 14 -1 36 -7 50 -15z m750 -55 c0 -11 -7 -20 -15
-20 -17 0 -18 2 -9 24 9 23 24 20 24 -4z m10 -126 c0 -13 -4 -24 -10 -24 -5 0
-10 14 -10 31 0 17 4 28 10 24 6 -3 10 -17 10 -31z m-913 -126 c-3 -7 -5 -2
-5 12 0 14 2 19 5 13 2 -7 2 -19 0 -25z m1908 -306 c2 -98 15 -126 56 -117
l29 7 0 -130 0 -130 -40 -4 -39 -3 -3 75 c-2 59 -6 75 -18 75 -12 0 -16 -21
-21 -105 l-5 -105 -3 80 c-2 44 -6 91 -10 105 -4 14 -2 36 5 50 7 14 15 32 18
40 3 8 12 23 18 33 11 15 10 21 -9 36 -20 16 -20 20 -6 34 18 18 8 41 -14 33
-11 -5 -13 -2 -9 10 3 8 6 33 6 54 0 29 5 40 18 42 9 3 19 3 21 1 2 -1 5 -38
6 -81z m85 68 c0 -11 7 -20 15 -20 14 0 19 12 16 33 0 4 21 7 47 7 l48 0 1
-37 c1 -21 4 -144 7 -273 3 -129 8 -264 11 -299 2 -36 1 -69 -4 -75 -5 -6 -11
-43 -13 -83 -2 -40 -6 -75 -10 -78 -10 -10 -78 28 -80 44 -1 9 -2 153 -2 321
l-1 305 -30 0 c-18 0 -30 5 -29 13 1 6 2 46 3 87 0 42 5 75 11 75 6 0 10 -9
10 -20z m-2735 -2 c1 -2 0 -42 -3 -90 -4 -77 -6 -85 -19 -72 -30 30 -38 10
-43 -107 -3 -63 -8 -113 -12 -111 -5 1 -24 2 -43 2 l-35 0 1 169 c0 94 -3 182
-7 197 l-7 27 83 -6 c46 -4 84 -8 85 -9z m2549 -4 c10 -27 7 -44 -9 -44 -10 0
-15 10 -15 30 0 32 14 40 24 14z m-2303 -155 c4 -79 7 -183 8 -231 1 -62 5
-91 16 -102 13 -13 13 -15 -5 -21 -26 -8 -62 3 -54 17 4 6 6 95 5 199 -2 139
1 192 11 208 10 16 10 23 0 33 -16 16 -16 51 1 46 8 -3 14 -47 18 -149z m-441
131 c0 -5 -4 -10 -9 -10 -6 0 -13 5 -16 10 -3 6 1 10 9 10 9 0 16 -4 16 -10z
m1351 -37 c13 -16 12 -17 -3 -4 -10 7 -18 15 -18 17 0 8 8 3 21 -13z m-1406
-25 c25 -17 45 -35 45 -40 0 -6 -75 45 -99 68 -17 16 16 -2 54 -28z m45 12 c0
-5 -2 -10 -4 -10 -3 0 -8 5 -11 10 -3 6 -1 10 4 10 6 0 11 -4 11 -10z m1083
-17 c27 -8 66 -13 88 -11 38 3 39 2 39 -27 0 -16 3 -46 6 -66 l6 -35 -63 3
c-35 2 -106 6 -157 9 l-93 6 3 68 2 68 61 0 c33 1 82 -6 108 -15z m1665 -127
c-4 -6 -7 21 -7 60 l2 69 7 -60 c4 -33 3 -64 -2 -69z m966 97 c2 -10 8 -42 11
-70 l7 -53 -31 0 c-23 0 -31 5 -31 18 0 10 5 23 12 30 9 9 9 15 0 24 -7 7 -12
25 -12 40 0 21 5 28 19 28 11 0 22 -8 25 -17z m-3734 -41 c19 -17 32 -33 28
-37 -8 -9 -98 61 -98 76 0 13 25 -1 70 -39z m873 28 c14 0 17 -9 17 -45 0 -43
-1 -45 -29 -45 -16 0 -41 -3 -57 -6 l-29 -6 3 57 4 57 36 -6 c21 -3 45 -6 55
-6z m536 -98 c1 -8 -26 9 -59 38 -33 29 -60 54 -60 56 0 11 119 -83 119 -94z
m-1411 9 c58 -44 36 -56 -28 -16 -25 16 -40 33 -40 46 0 22 -3 24 68 -30z
m581 -90 c0 -104 -2 -118 -17 -117 -24 2 -27 -30 -2 -37 11 -3 20 -13 20 -23
0 -16 -1 -16 -18 -1 -10 10 -23 17 -28 17 -5 0 -8 38 -6 86 3 62 7 87 18 91
10 3 14 22 14 60 0 33 4 52 10 48 5 -3 9 -58 9 -124z m780 69 c30 -28 51 -50
47 -50 -9 0 -126 89 -126 96 0 15 33 -4 79 -46z m451 0 c0 -22 -4 -40 -10 -40
-5 0 -10 5 -10 10 0 6 -12 10 -27 10 l-28 1 28 15 c15 8 27 21 27 29 0 8 5 15
10 15 6 0 10 -18 10 -40z m1765 -7 l28 -38 -31 29 c-18 17 -32 33 -32 38 0 15
7 9 35 -29z m-2190 -71 c46 -37 22 -35 -35 3 -28 19 -56 35 -61 35 -5 0 -9 9
-9 21 0 20 2 19 38 -8 21 -15 51 -38 67 -51z m-1355 7 c0 -5 -13 0 -30 13 -16
12 -30 23 -30 25 0 2 14 -3 30 -12 17 -9 30 -20 30 -26z m1218 2 c3 -28 1 -33
-13 -27 -9 3 -36 6 -61 6 -33 0 -42 3 -38 14 9 22 -15 24 -156 12 -127 -10
-137 -13 -162 -38 -38 -39 -48 -35 -48 20 l0 47 238 0 237 0 3 -34z m-1255
-18 c27 -20 45 -39 40 -40 -13 -5 -103 57 -103 69 0 14 11 9 63 -29z m2321 28
c7 -11 -28 -21 -81 -21 -32 0 -43 4 -43 15 0 12 13 15 59 15 33 0 62 -4 65 -9z
m455 -66 c1 -16 -1 -17 -9 -5 -5 8 -9 29 -9 45 1 29 1 29 9 5 4 -14 8 -34 9
-45z m-955 39 c3 -9 12 -14 20 -11 10 4 14 -10 15 -60 l2 -65 -88 3 c-77 4
-88 2 -91 -13 -2 -12 3 -18 14 -18 36 0 -2 -18 -48 -23 l-48 -5 0 50 0 50 88
-7 c80 -6 89 -5 115 15 31 25 34 41 11 75 -9 14 -12 25 -6 25 5 0 13 -7 16
-16z m-470 -26 c46 -30 65 -53 53 -64 -6 -6 -110 73 -115 87 -7 17 14 9 62
-23z m-1088 -25 c-10 -26 -18 -8 -9 23 5 21 8 24 11 11 2 -10 1 -25 -2 -34z
m852 40 c-10 -2 -26 -2 -35 0 -10 3 -2 5 17 5 19 0 27 -2 18 -5z m1390 -10 c2
-9 -7 -13 -27 -13 -30 0 -39 9 -24 24 11 10 46 3 51 -11z m222 -13 c0 -25 -4
-30 -24 -30 -13 0 -26 7 -30 15 -9 25 4 45 30 45 20 0 24 -5 24 -30z m-710 10
c0 -5 -4 -10 -10 -10 -5 0 -10 5 -10 10 0 6 5 10 10 10 6 0 10 -4 10 -10z
m1739 -33 c23 -21 41 -42 39 -48 -2 -5 -26 14 -53 42 -57 59 -48 63 14 6z
m-3870 -26 c1 -61 -12 -89 -23 -48 -10 38 -7 95 7 100 6 3 13 6 13 6 1 1 2
-26 3 -58z m111 37 c0 -5 -9 -4 -20 2 -11 6 -20 12 -20 14 0 2 9 2 20 -1 11
-3 20 -9 20 -15z m2329 0 c-9 -20 -16 -23 -62 -20 -97 7 -90 42 8 42 63 0 64
0 54 -22z m-300 -91 c1 -10 -40 19 -89 63 -26 22 -18 19 27 -12 34 -24 62 -47
62 -51z m426 73 c3 -5 -1 -10 -10 -10 -9 0 -13 5 -10 10 3 6 8 10 10 10 2 0 7
-4 10 -10z m-1080 -50 c24 -19 44 -43 45 -52 0 -13 -13 -8 -55 24 -30 22 -55
47 -55 55 0 19 11 15 65 -27z m1234 -7 c-1 -39 -2 -43 -9 -23 -12 36 -12 70 0
70 6 0 10 -21 9 -47z m-2480 21 c32 -7 39 -25 22 -53 -8 -12 -16 -9 -44 15
-52 43 -47 52 22 38z m-306 -46 c4 -39 1 -46 -35 -82 -21 -21 -40 -37 -42 -35
-2 2 -1 39 1 82 l6 77 32 0 c31 0 33 -2 38 -42z m2561 18 c-6 -15 -24 -23 -24
-11 0 8 24 34 28 30 1 -1 0 -10 -4 -19z m393 -48 c-2 -13 -4 -3 -4 22 0 25 2
35 4 23 2 -13 2 -33 0 -45z m-1386 -24 c8 -9 -10 0 -38 20 -29 21 -56 43 -60
48 -9 16 81 -47 98 -68z m-1103 41 c-3 -3 -9 2 -12 12 -6 14 -5 15 5 6 7 -7
10 -15 7 -18z m52 -6 c0 -6 -4 -7 -10 -4 -5 3 -10 11 -10 16 0 6 5 7 10 4 6
-3 10 -11 10 -16z m3013 -76 c2 -54 3 -100 1 -102 -2 -2 -13 0 -25 5 -18 8
-21 19 -22 77 -1 37 2 67 7 67 4 0 5 11 2 25 -5 20 -3 25 12 25 17 0 20 -11
25 -97z m297 56 c0 -19 -4 -28 -11 -24 -6 4 -8 13 -5 21 3 7 1 16 -5 19 -5 4
-7 11 -3 16 10 17 24 -1 24 -32z m-1136 5 c6 -15 4 -15 -11 -3 -10 7 -20 15
-22 16 -2 2 3 3 11 3 9 0 19 -7 22 -16z m-1929 -24 c12 -19 -12 -10 -31 11
-19 22 -19 22 3 10 12 -6 25 -16 28 -21z m2940 -10 c2 -12 11 -33 20 -46 20
-30 9 -31 -16 -1 -10 12 -18 35 -19 51 0 33 8 31 15 -4z m-571 -6 c13 -5 16
-23 16 -94 0 -49 -4 -91 -9 -95 -11 -6 -22 42 -21 90 1 17 -1 47 -2 68 -2 20
-3 37 -2 37 1 0 9 -3 18 -6z m-394 -59 c7 -8 19 -15 26 -15 8 0 14 -4 14 -10
0 -5 -2 -10 -5 -10 -11 0 -105 75 -105 83 0 10 51 -25 70 -48z m1218 -10 c-3
-3 -9 2 -12 12 -6 14 -5 15 5 6 7 -7 10 -15 7 -18z m-1194 -84 c34 -37 11 -32
-25 5 -21 23 -26 33 -14 26 11 -5 29 -20 39 -31z m1196 17 c0 -6 -6 -5 -15 2
-8 7 -15 14 -15 16 0 2 7 1 15 -2 8 -4 15 -11 15 -16z m-489 -2 c4 2 40 -8 80
-21 41 -13 81 -25 89 -25 9 0 33 -9 55 -20 22 -11 48 -20 58 -20 10 0 29 -8
40 -17 18 -15 22 -27 19 -71 -3 -48 -5 -51 -22 -42 -25 14 -104 31 -155 34
-46 3 -86 18 -102 38 -7 7 -13 38 -15 68 -2 41 -7 55 -18 55 -11 0 -18 -17
-24 -58 -7 -44 -13 -57 -25 -55 -9 2 -17 15 -19 31 -2 15 -8 27 -14 27 -22 0
-48 -33 -48 -60 0 -43 26 -57 116 -63 45 -3 97 -12 115 -20 19 -9 72 -23 118
-32 47 -8 87 -17 89 -20 3 -3 -77 -5 -177 -5 l-181 0 -10 25 c-7 18 -17 25
-38 25 -46 0 -58 26 -66 136 l-7 100 68 -7 c37 -4 71 -5 74 -3z m429 -20 c14
-18 14 -18 -7 -6 -12 8 -19 18 -16 23 3 4 6 7 7 5 1 -2 8 -12 16 -22z m-865
-11 c18 -14 35 -37 37 -50 5 -26 -2 -25 -37 5 -11 10 -32 20 -47 24 -31 7 -38
32 -10 39 9 3 18 5 20 6 2 0 18 -10 37 -24z m795 -15 c0 -5 -2 -10 -4 -10 -3
0 -8 5 -11 10 -3 6 -1 10 4 10 6 0 11 -4 11 -10z m-745 -135 c28 -26 62 -53
76 -60 14 -8 31 -21 38 -29 12 -14 8 -16 -31 -16 -43 0 -45 1 -41 24 4 20 -2
29 -28 45 -22 13 -37 17 -43 11 -6 -6 -22 -10 -36 -10 -14 0 -36 -8 -50 -17
-22 -16 -23 -16 -17 1 4 10 7 49 7 88 l0 70 38 -30 c20 -16 60 -51 87 -77z
m836 66 c36 -36 49 -61 32 -61 -13 0 -83 74 -83 87 0 21 10 16 51 -26z m-1128
-68 c17 -29 -10 -9 -48 35 l-40 47 40 -34 c22 -19 44 -40 48 -48z m-1668 37
c27 0 28 -1 13 -17 -13 -12 -20 -14 -30 -5 -9 7 -27 8 -53 2 -39 -9 -55 -6
-55 10 0 10 47 19 75 14 11 -2 33 -4 50 -4z m1674 -120 c2 -8 -27 14 -63 50
-36 36 -66 69 -66 74 0 13 124 -107 129 -124z m441 89 c33 -22 60 -44 60 -49
0 -4 -16 -11 -35 -14 -32 -6 -41 -2 -91 41 -57 49 -57 55 -1 62 4 1 34 -17 67
-40z m-2030 9 c0 -21 0 -21 -22 -2 -13 10 -25 20 -27 21 -2 2 8 3 22 3 21 0
27 -5 27 -22z m121 -72 c-3 -42 -11 -71 -18 -74 -8 -2 -13 5 -13 17 0 24 -19
38 -29 22 -4 -6 -7 -39 -7 -71 1 -33 -2 -60 -5 -60 -13 0 -20 112 -8 126 9 11
9 18 0 28 -7 8 -11 30 -9 48 3 30 6 33 43 38 22 3 43 3 46 0 4 -3 4 -36 0 -74z
m278 32 c-1 -24 -3 -35 -6 -26 -8 30 -83 37 -83 8 0 -6 12 -15 26 -20 18 -7
24 -15 20 -26 -3 -9 -6 -22 -6 -30 0 -19 -36 -18 -44 2 -3 9 -6 42 -6 75 l0
59 50 0 50 0 -1 -42z m-1217 -10 c-9 -9 -12 -7 -12 12 0 19 3 21 12 12 9 -9 9
-15 0 -24z m1328 -41 c0 -5 -14 3 -31 17 -17 14 -35 26 -40 26 -5 0 -9 7 -9
15 0 12 11 7 40 -16 22 -18 40 -36 40 -42z m-1442 -12 c2 -60 -7 -81 -23 -55
-3 6 -15 10 -26 10 -16 0 -19 7 -19 55 l0 55 33 0 32 0 3 -65z m1588 43 c-3
-13 -6 -42 -6 -65 l0 -43 -44 0 c-41 0 -45 2 -51 30 -4 19 -2 37 6 46 9 11 9
18 1 26 -22 22 -12 28 44 28 54 0 56 -1 50 -22z m254 -103 l0 -125 -50 0 c-27
0 -50 4 -50 9 0 5 9 7 20 4 13 -3 20 0 21 8 3 28 -2 125 -7 142 -4 12 0 17 16
17 37 0 20 34 -19 40 -60 9 -50 30 13 30 l56 0 0 -125z m-690 79 c29 -12 40
-22 40 -37 0 -19 -2 -19 -29 7 -15 15 -34 26 -41 24 -7 -2 -15 3 -17 10 -6 16
-2 15 47 -4z m545 -52 c-8 -8 -75 42 -75 56 0 7 17 -1 40 -19 22 -18 38 -34
35 -37z m235 36 c0 -6 -7 -5 -15 2 -8 7 -15 17 -15 22 0 6 7 5 15 -2 8 -7 15
-17 15 -22z m149 -65 c-1 -78 -2 -83 -10 -43 -4 25 -5 58 -2 73 4 24 2 28 -13
25 -20 -3 -32 -49 -33 -118 -1 -31 -4 -35 -26 -35 -24 0 -25 2 -25 71 0 65 2
72 21 77 15 4 20 11 16 21 -5 13 1 16 33 16 l40 0 -1 -87z m-639 11 c0 -21
-15 -17 -49 12 -47 39 -40 60 9 28 22 -15 40 -33 40 -40z m-1364 16 c1 -32 -2
-40 -16 -40 -14 0 -19 10 -22 40 -3 35 -1 40 17 40 17 0 21 -7 21 -40z m1082
-11 c19 -17 32 -32 30 -34 -1 -2 -20 12 -40 31 -21 19 -34 34 -30 34 4 0 22
-14 40 -31z m542 -44 c0 -23 -18 -18 -36 10 -9 14 -23 25 -30 25 -8 0 -14 5
-14 10 0 6 18 1 40 -10 22 -11 40 -27 40 -35z m226 27 c-4 -3 -14 2 -24 12
-16 18 -16 18 6 6 13 -6 21 -14 18 -18z m-656 -32 c0 -4 -7 -10 -15 -14 -10
-4 -15 1 -15 14 0 13 5 18 15 14 8 -4 15 -10 15 -14z m166 -18 c-4 -3 -14 2
-24 12 -16 18 -16 18 6 6 13 -6 21 -14 18 -18z m490 -10 c-4 -3 -14 2 -24 12
-16 18 -16 18 6 6 13 -6 21 -14 18 -18z m-336 -46 c0 -7 -21 -11 -50 -11 -27
0 -50 5 -50 10 0 6 23 10 50 11 29 0 50 -4 50 -10z m465 -41 c6 -2 -14 -4 -43
-4 -29 -1 -51 3 -48 7 4 7 67 5 91 -3z"/>
<path d="M2552 3048 c-23 -30 -34 -163 -28 -338 4 -96 9 -183 12 -192 6 -19
34 -24 49 -9 6 6 35 11 65 13 47 3 55 6 55 23 0 11 7 25 15 31 12 10 12 22 2
75 -6 35 -14 129 -17 209 -7 145 -7 145 -37 173 -32 29 -97 38 -116 15z"/>
<path d="M2505 2440 c-14 -22 11 -30 96 -30 69 0 89 3 89 14 0 8 -7 17 -16 20
-26 10 -162 7 -169 -4z"/>
<path d="M2870 3030 c-13 -8 -15 -48 -16 -247 -1 -131 0 -246 3 -255 6 -26 38
-22 53 6 7 13 10 39 8 58 -3 18 -2 42 2 54 5 12 5 81 1 155 l-8 134 26 21 c22
19 24 25 16 50 -8 22 -17 30 -40 32 -17 1 -37 -2 -45 -8z"/>
<path d="M2827 2344 c-14 -14 6 -24 49 -24 32 0 44 4 42 13 -5 13 -79 22 -91
11z"/>
<path d="M3023 2020 c-42 -18 -25 -30 43 -30 65 0 66 0 119 -51 30 -28 57 -60
60 -70 8 -26 35 -24 35 2 0 79 -179 183 -257 149z"/>
<path d="M2987 1858 c-46 -70 -47 -75 -42 -128 10 -93 16 -120 25 -120 6 0 10
-8 10 -18 0 -42 78 -77 126 -57 60 26 77 57 82 151 3 63 1 94 -11 122 -9 20
-17 46 -19 57 -4 25 -63 65 -98 65 -22 0 -34 -13 -73 -72z m131 -28 c20 -39
22 -57 20 -134 -3 -83 -5 -91 -30 -109 l-26 -20 -31 24 c-45 36 -65 95 -58
176 4 57 9 71 32 91 39 33 66 25 93 -28z"/>
<path d="M3030 1835 c0 -8 5 -15 11 -15 5 0 3 -10 -5 -22 -11 -15 -16 -45 -16
-89 0 -64 1 -67 26 -73 15 -4 32 -2 38 4 8 8 4 12 -12 16 -12 4 -23 14 -23 23
-4 40 4 87 16 100 12 12 16 11 25 -13 9 -24 13 -26 26 -15 18 15 11 54 -13 82
-20 21 -73 23 -73 2z"/>
<path d="M2185 2939 c-9 -26 9 -444 20 -439 6 3 9 83 6 220 -3 195 -11 259
-26 219z"/>
<path d="M2080 1921 c-47 -25 -89 -108 -89 -176 -1 -60 15 -109 52 -162 25
-37 33 -41 83 -47 72 -8 127 9 163 50 24 26 30 44 36 108 10 111 -24 194 -95
231 -40 21 -108 19 -150 -4z m190 -156 c0 -5 -5 -3 -10 5 -5 8 -10 20 -10 25
0 6 5 3 10 -5 5 -8 10 -19 10 -25z m-79 -21 c3 -17 9 -36 13 -42 12 -19 44
-14 61 11 l17 22 -7 -25 c-8 -32 -55 -100 -77 -114 -26 -16 -35 2 -10 20 21
15 22 41 1 28 -30 -18 -83 26 -59 50 5 5 10 20 10 32 0 59 39 73 51 18z m-99
-89 c3 -14 1 -25 -3 -25 -5 0 -9 11 -9 25 0 14 2 25 4 25 2 0 6 -11 8 -25z"/>
<path d="M2373 1524 c-48 -49 -51 -54 -25 -54 23 0 82 60 82 83 0 24 -10 19
-57 -29z"/>
<path d="M4305 670 c-4 -6 -5 -13 -4 -14 2 -1 15 -10 29 -20 25 -17 24 -17
-32 -11 -37 5 -58 4 -58 -3 0 -14 19 -20 90 -28 46 -5 63 -12 71 -26 7 -14 14
-17 21 -10 16 16 0 45 -47 82 -53 41 -61 45 -70 30z"/>
<path d="M1270 776 c0 -8 28 -38 63 -68 34 -29 106 -95 159 -145 89 -84 128
-110 128 -84 0 13 -178 185 -255 247 -33 27 -61 52 -63 56 -6 14 -32 9 -32 -6z"/>
<path d="M562 632 c-46 -40 -54 -62 -22 -62 11 0 20 5 20 12 0 7 14 26 31 44
44 45 22 49 -29 6z"/>
<path d="M389 454 c-13 -14 -59 -53 -101 -86 -47 -36 -78 -68 -78 -79 0 -29
18 -32 35 -5 9 13 33 35 53 49 46 30 132 118 132 135 0 19 -14 14 -41 -14z"/>
<path d="M145 230 c-21 -23 -12 -39 13 -24 19 12 29 44 14 44 -5 0 -17 -9 -27
-20z"/>
<path d="M3310 163 c-10 -12 -28 -23 -40 -23 -29 0 -20 -24 11 -28 13 -2 28
-8 34 -13 5 -5 28 -9 52 -9 l43 0 -20 20 c-16 16 -18 25 -10 40 16 30 12 37
-21 37 -20 0 -36 -8 -49 -24z"/>
</g>
</svg>
